<svg aria-hidden="true" style="position: absolute; width: 0; height: 0; overflow: hidden;" version="1.1" xmlns="http://www.w3.org/2000/svg" xmlns:xlink="http://www.w3.org/1999/xlink">
<defs>
<symbol id="icon-facebook" viewBox="0 0 32 32">
<path d="M19 6h5v-6h-5c-3.86 0-7 3.14-7 7v3h-4v6h4v16h6v-16h5l1-6h-6v-3c0-0.542 0.458-1 1-1z"></path>
</symbol>
<symbol id="icon-instagram" viewBox="0 0 32 32">
<path d="M16 2.881c4.275 0 4.781 0.019 6.462 0.094 1.563 0.069 2.406 0.331 2.969 0.55 0.744 0.288 1.281 0.638 1.837 1.194 0.563 0.563 0.906 1.094 1.2 1.838 0.219 0.563 0.481 1.412 0.55 2.969 0.075 1.688 0.094 2.194 0.094 6.463s-0.019 4.781-0.094 6.463c-0.069 1.563-0.331 2.406-0.55 2.969-0.288 0.744-0.637 1.281-1.194 1.837-0.563 0.563-1.094 0.906-1.837 1.2-0.563 0.219-1.413 0.481-2.969 0.55-1.688 0.075-2.194 0.094-6.463 0.094s-4.781-0.019-6.463-0.094c-1.563-0.069-2.406-0.331-2.969-0.55-0.744-0.288-1.281-0.637-1.838-1.194-0.563-0.563-0.906-1.094-1.2-1.837-0.219-0.563-0.481-1.413-0.55-2.969-0.075-1.688-0.094-2.194-0.094-6.463s0.019-4.781 0.094-6.463c0.069-1.563 0.331-2.406 0.55-2.969 0.288-0.744 0.638-1.281 1.194-1.838 0.563-0.563 1.094-0.906 1.838-1.2 0.563-0.219 1.412-0.481 2.969-0.55 1.681-0.075 2.188-0.094 6.463-0.094zM16 0c-4.344 0-4.887 0.019-6.594 0.094-1.7 0.075-2.869 0.35-3.881 0.744-1.056 0.412-1.95 0.956-2.837 1.85-0.894 0.888-1.438 1.781-1.85 2.831-0.394 1.019-0.669 2.181-0.744 3.881-0.075 1.713-0.094 2.256-0.094 6.6s0.019 4.887 0.094 6.594c0.075 1.7 0.35 2.869 0.744 3.881 0.413 1.056 0.956 1.95 1.85 2.837 0.887 0.887 1.781 1.438 2.831 1.844 1.019 0.394 2.181 0.669 3.881 0.744 1.706 0.075 2.25 0.094 6.594 0.094s4.888-0.019 6.594-0.094c1.7-0.075 2.869-0.35 3.881-0.744 1.050-0.406 1.944-0.956 2.831-1.844s1.438-1.781 1.844-2.831c0.394-1.019 0.669-2.181 0.744-3.881 0.075-1.706 0.094-2.25 0.094-6.594s-0.019-4.887-0.094-6.594c-0.075-1.7-0.35-2.869-0.744-3.881-0.394-1.063-0.938-1.956-1.831-2.844-0.887-0.887-1.781-1.438-2.831-1.844-1.019-0.394-2.181-0.669-3.881-0.744-1.712-0.081-2.256-0.1-6.6-0.1v0z"></path>
<path d="M16 7.781c-4.537 0-8.219 3.681-8.219 8.219s3.681 8.219 8.219 8.219 8.219-3.681 8.219-8.219c0-4.537-3.681-8.219-8.219-8.219zM16 21.331c-2.944 0-5.331-2.387-5.331-5.331s2.387-5.331 5.331-5.331c2.944 0 5.331 2.387 5.331 5.331s-2.387 5.331-5.331 5.331z"></path>
<path d="M26.462 7.456c0 1.060-0.859 1.919-1.919 1.919s-1.919-0.859-1.919-1.919c0-1.060 0.859-1.919 1.919-1.919s1.919 0.859 1.919 1.919z"></path>
</symbol>
<symbol id="icon-twitter" viewBox="0 0 32 32">
<path d="M32 7.075c-1.175 0.525-2.444 0.875-3.769 1.031 1.356-0.813 2.394-2.1 2.887-3.631-1.269 0.75-2.675 1.3-4.169 1.594-1.2-1.275-2.906-2.069-4.794-2.069-3.625 0-6.563 2.938-6.563 6.563 0 0.512 0.056 1.012 0.169 1.494-5.456-0.275-10.294-2.888-13.531-6.862-0.563 0.969-0.887 2.1-0.887 3.3 0 2.275 1.156 4.287 2.919 5.463-1.075-0.031-2.087-0.331-2.975-0.819 0 0.025 0 0.056 0 0.081 0 3.181 2.263 5.838 5.269 6.437-0.55 0.15-1.131 0.231-1.731 0.231-0.425 0-0.831-0.044-1.237-0.119 0.838 2.606 3.263 4.506 6.131 4.563-2.25 1.762-5.075 2.813-8.156 2.813-0.531 0-1.050-0.031-1.569-0.094 2.913 1.869 6.362 2.95 10.069 2.95 12.075 0 18.681-10.006 18.681-18.681 0-0.287-0.006-0.569-0.019-0.85 1.281-0.919 2.394-2.075 3.275-3.394z"></path>
</symbol>
<symbol id="icon-linkedin" viewBox="0 0 32 32">
<path d="M12 12h5.535v2.837h0.079c0.77-1.381 2.655-2.837 5.464-2.837 5.842 0 6.922 3.637 6.922 8.367v9.633h-5.769v-8.54c0-2.037-0.042-4.657-3.001-4.657-3.005 0-3.463 2.218-3.463 4.509v8.688h-5.767v-18z"></path>
<path d="M2 12h6v18h-6v-18z"></path>
<path d="M8 7c0 1.657-1.343 3-3 3s-3-1.343-3-3c0-1.657 1.343-3 3-3s3 1.343 3 3z"></path>
</symbol>
<symbol id="icon-diligence" viewBox="0 0 41 32">
<path d="M2.047 31.732h32.751c1.13 0 2.047-0.916 2.047-2.047v-2.729c0-1.13-0.917-2.047-2.047-2.047h-0.682v-17.015l3.876-3.671c0.9 0.443 1.988 0.174 2.577-0.638s0.506-1.931-0.195-2.648-1.818-0.824-2.643-0.253c-0.825 0.571-1.118 1.653-0.694 2.563l-2.92 2.768v-1.574c0-1.13-0.916-2.047-2.047-2.047h-27.292c-1.13 0-2.047 0.917-2.047 2.047v20.469h-0.682c-1.13 0-2.047 0.916-2.047 2.047v2.729c0 1.13 0.917 2.047 2.047 2.047zM38.892 1.711c0.377 0 0.682 0.305 0.682 0.682s-0.306 0.682-0.682 0.682c-0.377 0-0.682-0.305-0.682-0.682s0.305-0.682 0.682-0.682zM4.094 4.44c0-0.377 0.306-0.682 0.682-0.682h27.292c0.377 0 0.682 0.306 0.682 0.682v2.865l-1.365 1.297v-2.798c0-0.377-0.306-0.682-0.682-0.682h-24.563c-0.377 0-0.682 0.306-0.682 0.682v17.058c0 0.377 0.306 0.682 0.682 0.682h24.563c0.377 0 0.682-0.305 0.682-0.682v-12.383l1.365-1.293v15.723h-28.657v-20.469zM10.235 13.31c-0.923-0.003-1.734 0.612-1.979 1.502s0.135 1.834 0.928 2.305c0.794 0.471 1.805 0.353 2.468-0.289l2.372 1.19c0.276 0.138 0.61 0.073 0.815-0.157l5.042-5.672 4.956 3.714c0.266 0.199 0.637 0.178 0.878-0.050l4.307-4.080v10.408h-23.199v-15.693h23.199v3.405l-4.828 4.572-4.998-3.747c-0.284-0.213-0.683-0.173-0.919 0.092l-5.111 5.751-1.911-0.956c0.014-0.082 0.023-0.165 0.026-0.248 0-1.13-0.917-2.047-2.047-2.047zM10.917 15.357c0 0.377-0.305 0.682-0.682 0.682s-0.682-0.306-0.682-0.682c0-0.377 0.306-0.682 0.682-0.682s0.682 0.306 0.682 0.682zM15.011 26.274h6.823v0.682c0 0.377-0.306 0.682-0.682 0.682h-5.459c-0.377 0-0.682-0.306-0.682-0.682v-0.682zM1.365 26.956c0-0.377 0.306-0.682 0.682-0.682h11.599v0.682c0 1.13 0.916 2.047 2.047 2.047h5.459c1.13 0 2.047-0.916 2.047-2.047v-0.682h11.599c0.377 0 0.682 0.305 0.682 0.682v2.729c0 0.377-0.305 0.682-0.682 0.682h-32.751c-0.377 0-0.682-0.305-0.682-0.682v-2.729z"></path>
</symbol>
<symbol id="icon-punctuality" viewBox="0 0 31 32">
<path d="M30.797 15.301c-0.002-8.452-6.855-15.303-15.308-15.301s-15.303 6.855-15.301 15.308c0.001 6.658 4.307 12.551 10.649 14.576 0.061 0.019 0.124 0.029 0.187 0.029 0.121-0 0.239-0.032 0.342-0.094 0.135-0.080 0.236-0.207 0.283-0.356l3.865-12.25c1.057-0.005 1.909-0.866 1.903-1.923s-0.866-1.909-1.923-1.903c-0.284 0.001-0.565 0.067-0.82 0.191l-5.106-5.107c-0.253-0.245-0.657-0.238-0.902 0.016-0.239 0.247-0.239 0.639 0 0.886l5.103 5.109c-0.392 0.799-0.168 1.764 0.536 2.309l-3.683 11.673c-7.278-2.681-11.004-10.754-8.323-18.032s10.754-11.004 18.032-8.323c7.278 2.681 11.004 10.754 8.323 18.032-1.31 3.556-4.001 6.431-7.462 7.973l-0.398-1.874c-0.073-0.345-0.411-0.565-0.756-0.492-0.109 0.023-0.209 0.074-0.293 0.148l-3.837 3.426c-0.263 0.234-0.287 0.637-0.052 0.9 0.076 0.085 0.174 0.149 0.283 0.184l4.899 1.564c0.335 0.108 0.694-0.077 0.802-0.412 0.034-0.106 0.040-0.219 0.017-0.328l-0.391-1.839c5.664-2.388 9.342-7.942 9.329-14.089zM15.492 14.664c0.352 0 0.638 0.286 0.638 0.638s-0.286 0.638-0.638 0.638c-0.352 0-0.638-0.285-0.638-0.638s0.285-0.638 0.638-0.638zM17.593 29.528l2.184-1.948 0.603 2.84-2.787-0.892z"></path>
</symbol>
<symbol id="icon-strategy" viewBox="0 0 30 32">
<path d="M29.773 22.098l-8.443-8.505 0.937-4.615c0.242 0.094 0.499 0.144 0.758 0.146h0.006c1.192 0.014 2.17-0.941 2.184-2.133s-0.941-2.17-2.133-2.184c-1.192-0.014-2.17 0.941-2.184 2.133-0.003 0.255 0.039 0.509 0.125 0.749l-4.96 0.605-8.091-8.133c-0.099-0.101-0.235-0.159-0.377-0.16-0.14 0.001-0.274 0.056-0.373 0.155l-1.513 1.504c-0.208 0.208-0.208 0.546 0 0.754l0.814 0.826c-3.153 5.798-2.129 12.978 2.519 17.663 0.043 0.041 0.092 0.074 0.146 0.098-0.034 0.18-0.051 0.364-0.052 0.547v6.187h-6.4c-1.472 0.002-2.665 1.195-2.667 2.667v1.067c0 0.295 0.239 0.533 0.533 0.533h24.533c0.295 0 0.533-0.239 0.533-0.533v-1.067c-0.002-1.472-1.195-2.665-2.667-2.667h-6.4v-2.742c1.003 0.21 2.024 0.317 3.049 0.32 2.458-0.003 4.877-0.615 7.040-1.783l0.818 0.823c0.099 0.101 0.235 0.159 0.377 0.16 0.14-0.001 0.274-0.056 0.373-0.155l1.513-1.504c0.208-0.208 0.208-0.546 0-0.754zM22.28 6.233c0.418-0.415 1.093-0.414 1.509 0.004s0.414 1.093-0.004 1.508c-0.2 0.199-0.47 0.31-0.752 0.31h-0.003c-0.589-0.003-1.064-0.483-1.061-1.072 0.002-0.282 0.115-0.552 0.314-0.751h-0.002zM21.024 9.738l-0.598 2.946-1.175-1.182 1.774-1.763zM20.419 8.836l-1.92 1.909-1.485-1.493 3.405-0.415zM23.004 28.8c0.884 0 1.6 0.716 1.6 1.6v0.533h-23.467v-0.533c0-0.884 0.716-1.6 1.6-1.6h20.267zM15.537 26.667v1.067h-5.333v-1.067h5.333zM10.204 25.6v-4.053c0-1.294 1.196-2.347 2.667-2.347s2.667 1.053 2.667 2.347v4.053h-5.333zM16.604 23.904v-2.357c0-1.882-1.675-3.413-3.733-3.413-1.331-0.020-2.576 0.657-3.281 1.786-4.058-4.274-4.971-10.645-2.279-15.887l18.602 18.708c-2.872 1.461-6.165 1.873-9.309 1.163zM27.893 23.22l-21.057-21.181 0.755-0.752 7.935 7.98c0.004 0 0.006 0.007 0.010 0.010l13.115 13.191-0.757 0.752z"></path>
</symbol>
<symbol id="icon-techno" viewBox="0 0 29 32">
<path d="M27.75 13.653c-0.323-0.435-0.796-0.716-1.334-0.791-0.54-0.077-1.073 0.065-1.504 0.395l-1.406 1.078-2.131 1.591-1.525-0.607c2.719-1.22 4.619-3.939 4.619-7.096 0-4.293-3.506-7.785-7.816-7.785s-7.816 3.492-7.816 7.785c0 1.556 0.465 3.003 1.258 4.22l-3.103-0.027c-0.002 0-0.004 0-0.005 0-0.010 0-0.017 0.005-0.026 0.005-0.059 0.002-0.117 0.014-0.174 0.035-0.014 0.005-0.029 0.008-0.043 0.015-0.007 0.003-0.014 0.004-0.022 0.007l-3.63 1.792c-0.001 0-0.001 0-0.001 0.001l-2.126 1.022c-0.023 0.010-0.047 0.024-0.071 0.040-0.847 0.564-1.136 1.672-0.672 2.577 0.247 0.481 0.668 0.836 1.186 0.998 0.199 0.062 0.403 0.093 0.605 0.093 0.325 0 0.647-0.080 0.943-0.237l1.558-0.829 2.542-1.313 1.523-0.009-6.11 6.081c-0.001 0.001-0.001 0.001-0.002 0.001l-1.503 1.497c-0.355 0.353-0.55 0.822-0.55 1.322s0.195 0.97 0.55 1.323c0.365 0.363 0.844 0.545 1.324 0.545s0.959-0.182 1.325-0.545l1.476-1.47 1.955-1.459 1.011 1.007-1.978 1.97c-0.001 0.001-0.001 0.001-0.002 0.001l-1.503 1.497c-0.355 0.353-0.55 0.822-0.55 1.322s0.195 0.97 0.55 1.323c0.365 0.363 0.845 0.545 1.325 0.545s0.96-0.182 1.325-0.545l3.909-3.892c0.001-0.001 0.001-0.001 0.001-0.002l1.134-1.123-0.004-0.004c0.007-0.007 0.017-0.010 0.025-0.017l5.8-6.353 3.897 0.555c0.028 0.004 0.056 0.006 0.084 0.006 0.072 0 0.142-0.017 0.21-0.043 0.020-0.007 0.037-0.017 0.056-0.026 0.022-0.011 0.044-0.017 0.065-0.030l3.608-2.395c0.013-0.009 0.020-0.023 0.033-0.033 0.014-0.011 0.032-0.016 0.045-0.029l1.428-1.337c0.743-0.696 0.845-1.836 0.238-2.652zM2.392 17.707c-0.195 0.104-0.416 0.125-0.627 0.058-0.21-0.065-0.38-0.208-0.479-0.402-0.181-0.352-0.076-0.781 0.241-1.013l1.475-0.71 0.504 1.474-1.114 0.592zM6.319 15.655l-1.738 0.898-0.493-1.441 2.276-1.123-0.044 1.666zM23.272 8.221c0 1.031-0.246 2.004-0.672 2.874l-4.695-2.132c-0.049-0.644-0.383-1.207-0.885-1.558l1.644-5.457c2.67 0.849 4.609 3.34 4.609 6.274zM10.036 8.221c0-3.632 2.969-6.587 6.618-6.587 0.284 0 0.562 0.024 0.837 0.059l-1.608 5.338c-0.021-0.001-0.042-0.007-0.064-0.007-1.159 0-2.103 0.94-2.103 2.096s0.943 2.096 2.103 2.096c0.78 0 1.453-0.431 1.817-1.061l4.337 1.97c-1.207 1.624-3.138 2.683-5.318 2.683-3.649 0-6.618-2.955-6.618-6.587zM16.723 9.12c0 0.495-0.406 0.898-0.905 0.898s-0.905-0.403-0.905-0.898c0-0.495 0.406-0.898 0.905-0.898s0.905 0.403 0.905 0.898zM2.768 25.989c-0.265 0.263-0.695 0.262-0.959 0.001-0.128-0.128-0.198-0.296-0.198-0.475s0.070-0.347 0.198-0.473l1.080-1.076 0.956 0.952-1.077 1.072zM6.376 30.181c-0.265 0.263-0.695 0.264-0.96 0.001-0.128-0.128-0.198-0.296-0.198-0.475s0.070-0.347 0.198-0.473l1.081-1.077 0.956 0.952-1.077 1.072zM10.285 26.286c-0.001 0.001-0.001 0.001-0.002 0.001l-1.982 1.976-0.956-0.952 1.98-1.971c0 0 0 0 0-0.001s0.001-0.001 0.002-0.001c0.045-0.045 0.073-0.099 0.101-0.152 0.008-0.016 0.023-0.029 0.029-0.045 0.019-0.046 0.022-0.096 0.029-0.144 0.004-0.028 0.016-0.053 0.016-0.081 0-0.040-0.014-0.079-0.023-0.119-0.007-0.036-0.007-0.073-0.021-0.107-0.023-0.056-0.062-0.106-0.102-0.155-0.011-0.013-0.016-0.030-0.028-0.043 0 0 0 0-0.001 0s-0.001-0.002-0.001-0.002l-1.804-1.796c-0.019-0.019-0.044-0.027-0.065-0.043-0.032-0.025-0.062-0.047-0.098-0.065-0.034-0.017-0.069-0.027-0.105-0.037-0.038-0.011-0.075-0.019-0.116-0.022-0.037-0.002-0.071 0.001-0.107 0.005-0.040 0.005-0.078 0.010-0.117 0.023-0.038 0.012-0.071 0.031-0.106 0.050-0.022 0.013-0.047 0.017-0.068 0.032l-1.991 1.486-1.011-1.007 2.694-2.679 4.896 4.815-1.041 1.032zM17.942 18.407c-0.017-0.002-0.034 0.004-0.051 0.003-0.044-0.002-0.086 0.001-0.129 0.008-0.034 0.006-0.066 0.013-0.099 0.024-0.038 0.013-0.073 0.031-0.108 0.053-0.034 0.020-0.064 0.042-0.093 0.069-0.014 0.013-0.032 0.019-0.045 0.033l-5.275 5.778-4.86-4.779 3.181-3.164c0.234-0.234 0.235-0.613 0.002-0.847-0.118-0.118-0.273-0.176-0.428-0.175v-0.001l-2.491 0.015 0.031-1.805 3.485 0.030c1.42 1.453 3.401 2.359 5.593 2.359 0.491 0 0.97-0.051 1.437-0.138 0.045 0.036 0.089 0.073 0.146 0.095l2.706 1.078 0.171 0.852 0.2 0.994-3.371-0.48zM22.479 18.608l-0.352-1.749 1.624-1.213 1.063 1.411-2.335 1.551zM26.694 15.429l-0.941 0.882-1.046-1.388 0.934-0.716c0.174-0.134 0.394-0.189 0.61-0.161 0.217 0.031 0.408 0.144 0.539 0.319 0.243 0.328 0.202 0.784-0.096 1.064z"></path>
</symbol>
<symbol id="icon-customers1" viewBox="0 0 59 32">
<path fill="#8e8f99" style="fill: var(--color1, #8e8f99)" d="M21.714 4l4.004 3.815-7.433-0.004v18.51h19.429v-7.077l4 3.811v-19.054h-20zM37.538 18.796l-11.354-10.817h11.354v10.817zM34.013 23.613h-12.653v-12.449h0.894v11.606h11.759v0.843zM23.883 29.749l0.472-0.97h0.388l-0.684 1.284v0.748h-0.353v-0.748l-0.684-1.284h0.389l0.472 0.97zM25.622 28.78h0.084l0.767 2.031h-0.368l-0.164-0.476h-0.786l-0.164 0.476h-0.367l0.765-2.031h0.234zM25.249 30.058h0.595l-0.298-0.862-0.297 0.862zM27.704 29.721c-0.070 0.050-0.133 0.1-0.188 0.15-0.059 0.054-0.106 0.113-0.141 0.176s-0.052 0.135-0.052 0.218c0 0.112 0.026 0.211 0.080 0.297s0.13 0.154 0.229 0.204c0.099 0.049 0.215 0.074 0.35 0.074 0.112 0 0.217-0.018 0.315-0.053 0.075-0.027 0.145-0.065 0.208-0.114l0.118 0.139h0.389l-0.298-0.351c0.021-0.029 0.041-0.058 0.058-0.090 0.042-0.075 0.072-0.157 0.091-0.245s0.029-0.182 0.029-0.28h-0.29c0 0.109-0.017 0.208-0.052 0.297-0.011 0.029-0.023 0.056-0.036 0.082l-0.402-0.475 0.141-0.103c0.054-0.039 0.101-0.080 0.142-0.124s0.073-0.092 0.096-0.145c0.023-0.053 0.035-0.112 0.035-0.176 0-0.081-0.020-0.155-0.061-0.223s-0.098-0.122-0.173-0.163c-0.074-0.042-0.163-0.063-0.266-0.063-0.107 0-0.2 0.021-0.28 0.063-0.080 0.041-0.142 0.099-0.186 0.176s-0.066 0.167-0.066 0.273c0 0.069 0.014 0.136 0.043 0.201s0.069 0.131 0.121 0.2c0.014 0.018 0.029 0.037 0.044 0.057zM27.871 29.925l0.452 0.532c-0.033 0.025-0.067 0.046-0.103 0.064-0.073 0.034-0.147 0.052-0.225 0.052-0.072 0-0.133-0.014-0.183-0.042s-0.087-0.067-0.113-0.116c-0.025-0.048-0.038-0.102-0.038-0.162 0-0.023 0.004-0.050 0.011-0.081s0.023-0.064 0.046-0.1c0.024-0.037 0.061-0.076 0.11-0.116l0.042-0.031zM27.951 29.554c-0.008-0.010-0.016-0.020-0.023-0.029-0.037-0.048-0.066-0.094-0.088-0.138s-0.032-0.088-0.032-0.13c0-0.044 0.008-0.083 0.024-0.119s0.041-0.065 0.074-0.087c0.032-0.022 0.073-0.034 0.12-0.034 0.068 0 0.12 0.020 0.158 0.061s0.056 0.086 0.056 0.134c0 0.057-0.013 0.104-0.038 0.142s-0.067 0.075-0.126 0.114l-0.125 0.084zM31.505 30.15c-0.011 0.133-0.048 0.252-0.112 0.356s-0.152 0.185-0.266 0.244-0.253 0.089-0.417 0.089c-0.126 0-0.239-0.022-0.339-0.067s-0.186-0.11-0.258-0.192c-0.072-0.084-0.127-0.185-0.165-0.303s-0.056-0.25-0.056-0.396v-0.169c0-0.146 0.019-0.278 0.057-0.396s0.095-0.219 0.167-0.303c0.073-0.085 0.16-0.149 0.261-0.194 0.102-0.045 0.217-0.067 0.345-0.067 0.162 0 0.299 0.030 0.41 0.089s0.198 0.142 0.259 0.247c0.062 0.105 0.1 0.226 0.114 0.361h-0.349c-0.009-0.087-0.030-0.162-0.061-0.225s-0.076-0.11-0.137-0.142c-0.060-0.034-0.14-0.050-0.237-0.050-0.080 0-0.15 0.015-0.209 0.045s-0.109 0.073-0.149 0.131c-0.040 0.058-0.070 0.129-0.091 0.213s-0.029 0.18-0.029 0.287v0.172c0 0.102 0.009 0.195 0.026 0.279s0.046 0.154 0.084 0.213c0.038 0.060 0.087 0.106 0.145 0.138s0.129 0.049 0.211 0.049c0.1 0 0.18-0.016 0.241-0.047s0.109-0.078 0.141-0.138c0.033-0.061 0.054-0.136 0.064-0.225h0.349zM33.443 29.851v-0.112c0-0.153-0.020-0.291-0.061-0.412s-0.097-0.226-0.172-0.311c-0.074-0.087-0.163-0.152-0.266-0.197s-0.218-0.068-0.343-0.068c-0.125 0-0.239 0.023-0.342 0.068s-0.191 0.11-0.266 0.197c-0.074 0.086-0.132 0.189-0.173 0.311s-0.061 0.258-0.061 0.412v0.112c0 0.154 0.020 0.291 0.061 0.413s0.1 0.226 0.176 0.311c0.075 0.086 0.164 0.151 0.266 0.197s0.217 0.067 0.342 0.067c0.126 0 0.24-0.022 0.343-0.067s0.192-0.111 0.265-0.197c0.074-0.086 0.132-0.189 0.172-0.311s0.060-0.259 0.060-0.413zM33.092 29.737v0.114c0 0.113-0.011 0.214-0.033 0.301s-0.053 0.161-0.095 0.222c-0.042 0.059-0.093 0.105-0.153 0.135s-0.13 0.045-0.208 0.045c-0.077 0-0.146-0.015-0.206-0.045s-0.113-0.076-0.156-0.135c-0.043-0.060-0.075-0.134-0.098-0.222s-0.033-0.188-0.033-0.301v-0.114c0-0.113 0.011-0.213 0.033-0.3s0.054-0.16 0.096-0.219c0.043-0.059 0.094-0.104 0.155-0.134s0.129-0.046 0.206-0.046 0.147 0.015 0.208 0.046c0.061 0.030 0.113 0.074 0.155 0.134s0.075 0.132 0.096 0.219c0.022 0.087 0.033 0.186 0.033 0.3z"></path>
</symbol>
<symbol id="icon-customers2" viewBox="0 0 59 32">
<path fill="#8e8f99" style="fill: var(--color1, #8e8f99)" d="M28.636 3.391c0.132 0 0.273 0.012 0.414 0.024 0.014 0.001 0.028 0.002 0.041 0.004 0.682 0.048 1.358 0.15 2.024 0.305v-1.636c-0.685-0.172-1.384-0.283-2.089-0.333-0.267-0.020-0.552-0.033-0.844-0.041h-0.244c-1.414 0.005-2.822 0.187-4.192 0.541-1.56 0.389-3.058 0.998-4.448 1.809v16.227c1.339-0.727 2.763-1.282 4.24-1.652 1.166-0.297 2.358-0.48 3.559-0.546h0.048c0.201-0.010 0.402-0.016 0.609-0.017v-1.662c-1.561 0.020-3.114 0.226-4.626 0.615-0.559 0.145-1.1 0.302-1.607 0.477l-0.578 0.196v-12.652l0.247-0.119c1.886-0.895 3.927-1.415 6.009-1.533 0.017-0.001 0.035-0.001 0.052 0 0.23-0.012 0.461-0.017 0.688-0.017h0.26c0.12 0.003 0.24 0.006 0.36 0.013h0.078zM31.516 5.064c0.363 0.028 0.739 0.041 1.119 0.041 1.487-0.005 2.967-0.195 4.407-0.565 1.476-0.371 2.9-0.927 4.238-1.654v15.938c-1.391 0.81-2.889 1.419-4.449 1.809-1.37 0.352-2.778 0.533-4.192 0.539-1.072 0.009-2.14-0.117-3.18-0.375v-16.041c0.246 0.057 0.499 0.109 0.756 0.153 0.422 0.071 0.867 0.123 1.301 0.155zM39.627 5.187l-0.578 0.195c-0.532 0.179-1.068 0.339-1.608 0.481-1.57 0.403-3.183 0.61-4.804 0.616-0.377 0-0.724-0.010-1.060-0.032l-0.461-0.030v13.015l0.396 0.035c0.367 0.032 0.746 0.048 1.128 0.048 1.276-0.005 2.547-0.17 3.783-0.49 1.018-0.255 2.008-0.611 2.956-1.062l0.247-0.119v-12.656z"></path>
<path fill="#8e8f99" style="fill: var(--color1, #8e8f99)" d="M20.421 25.836c-0.083-0.086-0.183-0.154-0.294-0.199s-0.23-0.066-0.349-0.061c-0.127-0.002-0.253 0.022-0.372 0.070-0.108 0.043-0.207 0.108-0.289 0.19-0.082 0.083-0.145 0.182-0.186 0.291-0.045 0.114-0.068 0.236-0.067 0.359v2.168c-0.005 0.153 0.024 0.305 0.085 0.445 0.051 0.111 0.125 0.21 0.217 0.291 0.087 0.073 0.188 0.126 0.298 0.154 0.105 0.030 0.214 0.045 0.324 0.045 0.121 0.001 0.24-0.025 0.35-0.076 0.108-0.047 0.207-0.116 0.289-0.201 0.080-0.084 0.145-0.183 0.189-0.291 0.046-0.109 0.070-0.227 0.069-0.346v-0.243h-0.567v0.193c0.002 0.066-0.010 0.132-0.033 0.193-0.018 0.046-0.047 0.088-0.082 0.122-0.035 0.028-0.075 0.050-0.119 0.062-0.038 0.013-0.078 0.020-0.119 0.020-0.051 0.006-0.102-0.002-0.149-0.022s-0.087-0.053-0.117-0.094c-0.053-0.087-0.080-0.188-0.075-0.291v-2.021c-0.004-0.112 0.020-0.223 0.069-0.324 0.029-0.046 0.071-0.082 0.12-0.105s0.104-0.032 0.157-0.025c0.049-0.002 0.097 0.008 0.141 0.030s0.082 0.053 0.112 0.092c0.063 0.083 0.097 0.186 0.094 0.291v0.187h0.561v-0.221c0.001-0.13-0.022-0.258-0.069-0.379-0.042-0.114-0.106-0.217-0.189-0.305z"></path>
<path fill="#8e8f99" style="fill: var(--color1, #8e8f99)" d="M23.788 25.811c-0.181-0.153-0.409-0.237-0.645-0.238-0.115 0-0.23 0.021-0.338 0.061-0.11 0.039-0.212 0.1-0.299 0.177-0.094 0.084-0.169 0.188-0.22 0.304-0.057 0.132-0.085 0.276-0.082 0.42v2.079c-0.004 0.146 0.024 0.292 0.082 0.426 0.051 0.112 0.126 0.211 0.22 0.291 0.087 0.080 0.188 0.143 0.299 0.183 0.108 0.040 0.223 0.061 0.338 0.061s0.23-0.021 0.338-0.061c0.113-0.041 0.217-0.103 0.306-0.183 0.090-0.081 0.163-0.18 0.214-0.291 0.058-0.134 0.086-0.279 0.082-0.426v-2.079c0.003-0.144-0.025-0.288-0.082-0.42-0.050-0.115-0.123-0.218-0.214-0.304zM23.523 28.614c0.005 0.055-0.003 0.111-0.022 0.163s-0.050 0.099-0.090 0.138c-0.075 0.063-0.169 0.097-0.267 0.097s-0.192-0.034-0.267-0.097c-0.040-0.038-0.071-0.085-0.090-0.138s-0.027-0.108-0.022-0.163v-2.079c-0.005-0.055 0.003-0.111 0.022-0.163s0.050-0.099 0.090-0.138c0.075-0.063 0.169-0.097 0.267-0.097s0.192 0.034 0.267 0.097c0.040 0.038 0.071 0.085 0.090 0.138s0.027 0.108 0.022 0.163v2.079z"></path>
<path fill="#8e8f99" style="fill: var(--color1, #8e8f99)" d="M28.21 29.543v-3.936h-0.545l-0.716 2.084h-0.010l-0.721-2.084h-0.539v3.936h0.562v-2.395h0.010l0.551 1.693h0.28l0.555-1.693h0.010v2.395h0.562z"></path>
<path fill="#8e8f99" style="fill: var(--color1, #8e8f99)" d="M31.405 25.882c-0.087-0.097-0.196-0.171-0.318-0.215-0.132-0.043-0.269-0.063-0.408-0.061h-0.835v3.936h0.561v-1.537h0.289c0.175 0.008 0.349-0.029 0.506-0.108 0.128-0.071 0.234-0.175 0.308-0.301 0.065-0.105 0.109-0.221 0.129-0.343 0.022-0.148 0.032-0.298 0.030-0.448 0.006-0.189-0.013-0.378-0.055-0.562-0.037-0.136-0.108-0.261-0.207-0.362zM31.116 27.082c-0.002 0.071-0.020 0.141-0.052 0.205-0.032 0.061-0.083 0.109-0.145 0.138-0.083 0.037-0.174 0.054-0.265 0.049h-0.256v-1.338h0.289c0.087-0.004 0.174 0.013 0.253 0.049 0.058 0.033 0.104 0.084 0.132 0.145 0.031 0.069 0.047 0.144 0.049 0.219 0 0.083 0 0.17 0 0.262s0.006 0.186 0 0.27h-0.006z"></path>
<path fill="#8e8f99" style="fill: var(--color1, #8e8f99)" d="M34.062 25.606h-0.46l-0.867 3.936h0.561l0.165-0.846h0.765l0.165 0.846h0.561l-0.889-3.936zM33.544 28.161l0.276-1.427h0.010l0.275 1.427h-0.561z"></path>
<path fill="#8e8f99" style="fill: var(--color1, #8e8f99)" d="M37.686 27.978h-0.010l-0.847-2.371h-0.539v3.936h0.561v-2.367h0.012l0.857 2.367h0.528v-3.936h-0.561v2.371z"></path>
<path fill="#8e8f99" style="fill: var(--color1, #8e8f99)" d="M41.113 25.606l-0.451 1.565h-0.012l-0.451-1.565h-0.594l0.77 2.273v1.664h0.561v-1.664l0.77-2.273h-0.594z"></path>
<path fill="#8e8f99" style="fill: var(--color1, #8e8f99)" d="M18.857 30.654h0.27v0.759h0.184v-0.759h0.269v-0.155h-0.723v0.155z"></path>
<path fill="#8e8f99" style="fill: var(--color1, #8e8f99)" d="M21.13 30.498l-0.354 0.914h0.195l0.075-0.208h0.364l0.078 0.208h0.2l-0.363-0.914h-0.195zM21.101 31.051l0.124-0.339 0.124 0.339h-0.249z"></path>
<path fill="#8e8f99" style="fill: var(--color1, #8e8f99)" d="M23.376 31.076h0.211v0.118c-0.062 0.049-0.138 0.076-0.217 0.077-0.037 0.002-0.074-0.005-0.107-0.020s-0.063-0.038-0.086-0.067c-0.048-0.070-0.072-0.154-0.068-0.238 0-0.203 0.088-0.305 0.263-0.305 0.046-0.005 0.092 0.008 0.13 0.034s0.065 0.066 0.077 0.111l0.181-0.035c-0.039-0.179-0.168-0.269-0.387-0.269-0.117-0.003-0.232 0.039-0.319 0.118-0.046 0.045-0.082 0.1-0.104 0.161s-0.032 0.126-0.027 0.19c-0.005 0.125 0.036 0.248 0.117 0.343 0.045 0.046 0.099 0.082 0.159 0.105s0.124 0.033 0.188 0.029c0.143 0.004 0.282-0.048 0.387-0.145v-0.36h-0.396v0.154z"></path>
<path fill="#8e8f99" style="fill: var(--color1, #8e8f99)" d="M25.67 30.498h-0.185v0.914h0.64v-0.155h-0.455v-0.759z"></path>
<path fill="#8e8f99" style="fill: var(--color1, #8e8f99)" d="M27.61 30.498h-0.185v0.914h0.185v-0.914z"></path>
<path fill="#8e8f99" style="fill: var(--color1, #8e8f99)" d="M29.507 31.109l-0.374-0.61h-0.179v0.914h0.172v-0.597l0.367 0.597h0.184v-0.914h-0.169v0.61z"></path>
<path fill="#8e8f99" style="fill: var(--color1, #8e8f99)" d="M31.221 31.010h0.455v-0.155h-0.455v-0.201h0.49v-0.155h-0.675v0.914h0.694v-0.155h-0.509v-0.247z"></path>
<path fill="#8e8f99" style="fill: var(--color1, #8e8f99)" d="M35.378 30.859h-0.36v-0.36h-0.184v0.914h0.184v-0.4h0.36v0.4h0.184v-0.914h-0.184v0.36z"></path>
<path fill="#8e8f99" style="fill: var(--color1, #8e8f99)" d="M37.103 31.010h0.457v-0.155h-0.457v-0.201h0.492v-0.155h-0.675v0.914h0.692v-0.155h-0.509v-0.247z"></path>
<path fill="#8e8f99" style="fill: var(--color1, #8e8f99)" d="M39.442 31.010c0.159-0.025 0.24-0.109 0.24-0.254 0.005-0.039-0.001-0.078-0.017-0.114s-0.041-0.067-0.073-0.089c-0.083-0.042-0.175-0.060-0.267-0.054h-0.387v0.914h0.184v-0.382h0.036c0.039-0.002 0.078 0.005 0.114 0.020 0.027 0.017 0.049 0.040 0.065 0.067l0.2 0.291h0.22l-0.111-0.179c-0.049-0.088-0.119-0.163-0.202-0.219zM39.257 30.884h-0.136v-0.23h0.145c0.063-0.005 0.126 0.002 0.187 0.022 0.013 0.012 0.024 0.026 0.031 0.043s0.010 0.034 0.009 0.052c-0.001 0.018-0.006 0.035-0.014 0.051s-0.020 0.029-0.035 0.040c-0.060 0.018-0.124 0.026-0.187 0.022z"></path>
<path fill="#8e8f99" style="fill: var(--color1, #8e8f99)" d="M41.206 31.010h0.455v-0.155h-0.455v-0.201h0.492v-0.155h-0.676v0.914h0.694v-0.155h-0.509v-0.247z"></path>
</symbol>
<symbol id="icon-customers3" viewBox="0 0 59 32">
<path fill="#8e8f99" style="fill: var(--color1, #8e8f99)" d="M21.034 28.128c0.009 0 0.018 0.002 0.027 0.005s0.016 0.008 0.022 0.014l0.126 0.119c-0.098 0.096-0.219 0.173-0.355 0.225-0.159 0.057-0.331 0.085-0.503 0.081-0.162 0.003-0.323-0.023-0.473-0.076-0.135-0.048-0.257-0.121-0.357-0.213-0.102-0.095-0.18-0.207-0.23-0.329-0.055-0.136-0.082-0.278-0.080-0.422-0.002-0.144 0.027-0.288 0.087-0.423 0.055-0.122 0.138-0.234 0.244-0.329 0.108-0.093 0.237-0.166 0.379-0.214 0.155-0.051 0.321-0.077 0.487-0.076 0.155-0.003 0.309 0.020 0.453 0.069 0.125 0.046 0.24 0.111 0.339 0.19l-0.106 0.127c-0.007 0.009-0.016 0.017-0.027 0.023-0.012 0.007-0.028 0.011-0.043 0.009-0.016-0.001-0.032-0.006-0.046-0.014l-0.057-0.034-0.079-0.043c-0.034-0.016-0.069-0.030-0.106-0.042-0.047-0.014-0.095-0.026-0.144-0.034-0.062-0.010-0.125-0.014-0.188-0.014-0.12-0.001-0.239 0.018-0.35 0.057-0.104 0.036-0.197 0.090-0.274 0.159-0.079 0.073-0.139 0.16-0.178 0.253-0.044 0.107-0.066 0.22-0.065 0.334-0.002 0.116 0.020 0.23 0.065 0.34 0.038 0.093 0.098 0.179 0.175 0.252 0.072 0.068 0.162 0.122 0.262 0.156 0.103 0.036 0.213 0.055 0.325 0.054 0.064 0.001 0.129-0.003 0.192-0.011 0.104-0.011 0.204-0.042 0.292-0.090 0.044-0.025 0.086-0.053 0.125-0.084 0.016-0.013 0.038-0.021 0.060-0.022z"></path>
<path fill="#8e8f99" style="fill: var(--color1, #8e8f99)" d="M24.678 27.532c0.002 0.143-0.027 0.285-0.085 0.419-0.051 0.122-0.132 0.233-0.238 0.326s-0.232 0.166-0.373 0.214c-0.309 0.101-0.65 0.101-0.959 0-0.14-0.049-0.266-0.122-0.371-0.214-0.105-0.095-0.187-0.206-0.24-0.329-0.114-0.271-0.114-0.568 0-0.84 0.054-0.122 0.135-0.235 0.24-0.33 0.106-0.090 0.232-0.16 0.371-0.206 0.308-0.102 0.651-0.102 0.959 0 0.14 0.049 0.267 0.122 0.372 0.214 0.104 0.094 0.185 0.204 0.238 0.325 0.058 0.135 0.087 0.278 0.085 0.422zM24.347 27.532c0.002-0.114-0.018-0.228-0.060-0.337-0.035-0.093-0.093-0.179-0.169-0.252-0.074-0.069-0.165-0.124-0.267-0.159-0.224-0.074-0.473-0.074-0.697 0-0.102 0.035-0.193 0.090-0.267 0.159-0.077 0.073-0.135 0.159-0.17 0.252-0.080 0.219-0.080 0.454 0 0.674 0.036 0.093 0.094 0.179 0.17 0.252 0.074 0.069 0.165 0.123 0.267 0.158 0.225 0.072 0.472 0.072 0.697 0 0.102-0.035 0.192-0.089 0.267-0.158 0.076-0.073 0.133-0.159 0.169-0.252 0.042-0.109 0.063-0.223 0.060-0.337z"></path>
<path fill="#8e8f99" style="fill: var(--color1, #8e8f99)" d="M27.164 27.885l0.033 0.076c0.013-0.027 0.024-0.051 0.036-0.076s0.026-0.050 0.041-0.074l0.806-1.252c0.016-0.022 0.030-0.035 0.046-0.039 0.021-0.006 0.044-0.008 0.066-0.007h0.238v2.036h-0.282v-1.497c0-0.019 0-0.040 0-0.063-0.002-0.023-0.002-0.047 0-0.070l-0.811 1.269c-0.010 0.019-0.027 0.035-0.047 0.046s-0.045 0.017-0.069 0.017h-0.046c-0.025 0-0.049-0.006-0.069-0.017s-0.037-0.027-0.047-0.047l-0.834-1.277c0 0.024 0 0.049 0 0.073s0 0.046 0 0.065v1.497h-0.273v-2.032h0.238c0.022-0.001 0.045 0.001 0.066 0.007 0.020 0.008 0.035 0.022 0.044 0.039l0.823 1.253c0.016 0.023 0.030 0.047 0.041 0.073z"></path>
<path fill="#8e8f99" style="fill: var(--color1, #8e8f99)" d="M30.197 27.784v0.763h-0.316v-2.034h0.704c0.133-0.002 0.265 0.013 0.393 0.044 0.102 0.025 0.197 0.068 0.278 0.127 0.070 0.055 0.124 0.123 0.158 0.199 0.037 0.083 0.055 0.171 0.054 0.26 0.001 0.089-0.018 0.178-0.058 0.26-0.038 0.078-0.096 0.148-0.17 0.203-0.081 0.061-0.176 0.107-0.279 0.135-0.123 0.034-0.251 0.049-0.38 0.047l-0.382-0.005zM30.197 27.566h0.382c0.083 0.001 0.165-0.010 0.244-0.031 0.065-0.019 0.125-0.049 0.177-0.088 0.047-0.037 0.084-0.083 0.107-0.135 0.026-0.054 0.039-0.113 0.038-0.171 0.004-0.057-0.007-0.113-0.032-0.166s-0.062-0.1-0.11-0.139c-0.12-0.080-0.272-0.119-0.424-0.109h-0.382v0.838z"></path>
<path fill="#8e8f99" style="fill: var(--color1, #8e8f99)" d="M34.437 28.549h-0.249c-0.025 0.001-0.050-0.006-0.069-0.019-0.018-0.013-0.032-0.029-0.041-0.047l-0.215-0.492h-1.077l-0.222 0.492c-0.008 0.018-0.022 0.034-0.039 0.046-0.020 0.014-0.045 0.021-0.071 0.020h-0.249l0.946-2.036h0.328l0.959 2.036zM32.875 27.793h0.89l-0.375-0.829c-0.029-0.062-0.052-0.126-0.071-0.191l-0.036 0.106c-0.011 0.032-0.024 0.062-0.035 0.086l-0.372 0.828z"></path>
<path fill="#8e8f99" style="fill: var(--color1, #8e8f99)" d="M35.8 26.522c0.019 0.009 0.035 0.021 0.047 0.036l1.38 1.535c0-0.024 0-0.049 0-0.071s0-0.046 0-0.067v-1.442h0.282v2.036h-0.158c-0.022 0.001-0.045-0.004-0.065-0.012-0.020-0.010-0.037-0.023-0.050-0.038l-1.379-1.534c0.002 0.023 0.002 0.047 0 0.070 0 0.023 0 0.043 0 0.062v1.452h-0.282v-2.036h0.167c0.020-0 0.039 0.003 0.057 0.009z"></path>
<path fill="#8e8f99" style="fill: var(--color1, #8e8f99)" d="M39.834 27.739v0.809h-0.316v-0.809l-0.872-1.226h0.282c0.024-0.001 0.048 0.005 0.068 0.018 0.017 0.013 0.032 0.029 0.043 0.046l0.546 0.791c0.022 0.034 0.041 0.065 0.057 0.094s0.028 0.058 0.039 0.086l0.041-0.088c0.015-0.032 0.033-0.063 0.054-0.093l0.538-0.797c0.011-0.016 0.025-0.030 0.041-0.043 0.019-0.014 0.043-0.021 0.068-0.020h0.285l-0.874 1.232z"></path>
<path fill="#8e8f99" style="fill: var(--color1, #8e8f99)" d="M27.008 23.095c0.137 0.015 0.276 0.027 0.416 0.038 2.128-0.813 3.929-2.145 5.176-3.828s1.887-3.643 1.838-5.634l-2.346-2.004c0.477 2.12 0.254 4.313-0.644 6.331s-2.436 3.783-4.441 5.098z"></path>
<path fill="#8e8f99" style="fill: var(--color1, #8e8f99)" d="M26.17 23.002l0.063 0.011c2.143-1.31 3.776-3.138 4.69-5.25s1.064-4.408 0.433-6.594l-3.341-2.854c1.351 2.346 1.895 4.972 1.568 7.572s-1.511 5.067-3.414 7.115z"></path>
<path fill="#8e8f99" style="fill: var(--color1, #8e8f99)" d="M37.5 16.024c-0.568 2.188-1.946 4.162-3.931 5.628-0.58 0.43-1.205 0.814-1.868 1.145 1.616-0.406 3.102-1.123 4.342-2.097s2.202-2.178 2.812-3.52l-1.355-1.156z"></path>
<path fill="#8e8f99" style="fill: var(--color1, #8e8f99)" d="M36.968 15.702l-1.929-1.648c-0.037 1.879-0.662 3.716-1.811 5.318s-2.779 2.914-4.721 3.796h0.009c0.433-0 0.865-0.022 1.295-0.066 1.815-0.633 3.418-1.64 4.667-2.931s2.104-2.826 2.489-4.469z"></path>
<path fill="#8e8f99" style="fill: var(--color1, #8e8f99)" d="M26.449 7.112l-2.301-1.969c-2.057 0.679-3.827 1.873-5.077 3.426s-1.922 3.392-1.928 5.276v0c0.008 2.082 0.828 4.103 2.331 5.742s3.603 2.803 5.967 3.308c2.111-2.197 3.346-4.912 3.528-7.75s-0.701-5.652-2.52-8.032z"></path>
<path fill="#8e8f99" style="fill: var(--color1, #8e8f99)" d="M42.286 15.399c-0.008-2.47-1.161-4.838-3.205-6.585s-4.815-2.731-7.707-2.739c-1.336-0.001-2.661 0.21-3.907 0.621l14.090 12.039c0.482-1.064 0.73-2.196 0.729-3.337z"></path>
</symbol>
<symbol id="icon-customers4" viewBox="0 0 59 32">
<path fill="#8e8f99" style="fill: var(--color1, #8e8f99)" d="M13.759 12.296h-0.002c-1.363 0-2.468 0.996-2.468 2.225v0.002c0 1.229 1.105 2.225 2.468 2.225h0.002c1.363 0 2.468-0.996 2.468-2.225v-0.002c0-1.229-1.105-2.225-2.468-2.225z"></path>
<path fill="#8e8f99" style="fill: var(--color1, #8e8f99)" d="M31.978 11.585c-0.004-1.707-0.758-3.343-2.096-4.551s-3.153-1.887-5.047-1.891v0c-1.894 0.003-3.709 0.683-5.049 1.89s-2.094 2.844-2.098 4.552v9.414c0 0 14.288-1.435 14.289-9.412v-0.001z"></path>
<path fill="#8e8f99" style="fill: var(--color1, #8e8f99)" d="M6.286 24.088c0.003 1.188 0.528 2.326 1.46 3.166s2.194 1.314 3.511 1.317c1.317-0.003 2.579-0.477 3.511-1.317s1.456-1.978 1.46-3.165v-6.55c0 0-9.942 0.999-9.942 6.549zM11.257 25.262c-0.258 0-0.509-0.069-0.723-0.198s-0.381-0.312-0.479-0.527-0.124-0.45-0.074-0.678c0.050-0.228 0.174-0.437 0.356-0.601s0.414-0.276 0.666-0.321c0.252-0.045 0.514-0.022 0.752 0.067s0.441 0.239 0.584 0.432c0.143 0.193 0.219 0.42 0.219 0.652 0.001 0.154-0.033 0.308-0.098 0.451s-0.161 0.273-0.282 0.382c-0.121 0.109-0.265 0.196-0.423 0.256s-0.328 0.090-0.499 0.090v-0.004z"></path>
<path fill="#8e8f99" style="fill: var(--color1, #8e8f99)" d="M20.348 23.151v2.438h-0.502v-2.438h0.502zM21.319 24.193v0.392h-1.108v-0.392h1.108zM21.436 23.151v0.393h-1.225v-0.393h1.225zM23.73 24.313v0.116c0 0.185-0.025 0.352-0.075 0.499s-0.121 0.273-0.213 0.377c-0.091 0.103-0.201 0.181-0.328 0.236-0.126 0.055-0.266 0.082-0.42 0.082-0.153 0-0.293-0.027-0.42-0.082-0.126-0.055-0.235-0.133-0.328-0.236-0.093-0.104-0.165-0.229-0.216-0.377-0.050-0.147-0.075-0.314-0.075-0.499v-0.116c0-0.186 0.025-0.353 0.075-0.499 0.050-0.147 0.121-0.273 0.213-0.377 0.093-0.104 0.202-0.183 0.328-0.238 0.127-0.055 0.267-0.082 0.42-0.082 0.154 0 0.294 0.027 0.42 0.082 0.127 0.055 0.237 0.134 0.328 0.238 0.093 0.104 0.164 0.229 0.214 0.377 0.051 0.146 0.077 0.312 0.077 0.499zM23.222 24.429v-0.119c0-0.13-0.012-0.243-0.035-0.342s-0.058-0.181-0.104-0.248-0.102-0.117-0.167-0.151c-0.066-0.035-0.141-0.052-0.226-0.052s-0.16 0.017-0.226 0.052c-0.065 0.034-0.12 0.084-0.166 0.151-0.045 0.067-0.079 0.15-0.102 0.248s-0.035 0.212-0.035 0.342v0.119c0 0.128 0.012 0.242 0.035 0.341 0.023 0.098 0.058 0.181 0.104 0.249 0.046 0.067 0.102 0.118 0.167 0.152s0.141 0.052 0.226 0.052c0.085 0 0.16-0.017 0.226-0.052s0.121-0.085 0.166-0.152c0.045-0.068 0.079-0.151 0.102-0.249 0.023-0.099 0.035-0.213 0.035-0.341zM25.36 24.951c0-0.044-0.007-0.083-0.020-0.117-0.012-0.036-0.036-0.068-0.070-0.097-0.035-0.030-0.083-0.060-0.146-0.089s-0.143-0.059-0.243-0.090c-0.11-0.036-0.215-0.076-0.315-0.121-0.098-0.045-0.185-0.096-0.261-0.156-0.075-0.060-0.134-0.13-0.177-0.209-0.042-0.079-0.064-0.171-0.064-0.276 0-0.102 0.022-0.194 0.067-0.276 0.045-0.084 0.107-0.155 0.188-0.214 0.080-0.060 0.175-0.107 0.285-0.139 0.11-0.032 0.232-0.049 0.363-0.049 0.18 0 0.337 0.032 0.47 0.097s0.238 0.154 0.311 0.266c0.075 0.113 0.112 0.242 0.112 0.387h-0.499c0-0.071-0.015-0.134-0.045-0.188-0.029-0.055-0.074-0.098-0.134-0.129-0.059-0.031-0.134-0.047-0.224-0.047-0.087 0-0.16 0.013-0.218 0.040-0.058 0.026-0.102 0.061-0.131 0.105-0.029 0.044-0.044 0.093-0.044 0.147 0 0.041 0.010 0.079 0.030 0.112 0.021 0.034 0.052 0.065 0.094 0.094s0.092 0.056 0.152 0.082c0.060 0.026 0.13 0.051 0.209 0.075 0.133 0.040 0.249 0.085 0.35 0.136 0.102 0.050 0.186 0.107 0.254 0.169s0.119 0.133 0.154 0.213c0.035 0.079 0.052 0.169 0.052 0.27 0 0.106-0.021 0.201-0.062 0.285s-0.101 0.155-0.179 0.213c-0.078 0.058-0.171 0.102-0.28 0.132s-0.229 0.045-0.363 0.045c-0.12 0-0.239-0.016-0.357-0.047-0.117-0.032-0.224-0.081-0.32-0.146-0.095-0.065-0.171-0.147-0.228-0.248s-0.085-0.219-0.085-0.357h0.504c0 0.076 0.012 0.14 0.035 0.192s0.056 0.095 0.099 0.127c0.044 0.032 0.095 0.056 0.154 0.070 0.060 0.015 0.126 0.022 0.198 0.022 0.087 0 0.158-0.012 0.214-0.037 0.057-0.025 0.099-0.059 0.126-0.102 0.028-0.044 0.042-0.093 0.042-0.147zM27.294 23.151v2.438h-0.501v-2.438h0.501zM28.044 23.151v0.393h-1.989v-0.393h1.989zM29.966 25.197v0.392h-1.297v-0.392h1.297zM28.832 23.151v2.438h-0.502v-2.438h0.502zM29.797 24.144v0.382h-1.128v-0.382h1.128zM29.964 23.151v0.393h-1.296v-0.393h1.296zM30.259 23.151h0.909c0.186 0 0.346 0.028 0.48 0.084 0.135 0.056 0.239 0.138 0.311 0.248s0.109 0.244 0.109 0.403c0 0.131-0.022 0.243-0.067 0.337-0.044 0.093-0.105 0.17-0.186 0.233-0.079 0.061-0.172 0.11-0.28 0.147l-0.159 0.084h-0.79l-0.003-0.392h0.588c0.088 0 0.161-0.016 0.219-0.047s0.102-0.075 0.131-0.131c0.030-0.056 0.045-0.12 0.045-0.194 0-0.078-0.015-0.146-0.044-0.203s-0.073-0.1-0.132-0.131-0.133-0.045-0.223-0.045h-0.407v2.044h-0.502v-2.438zM31.621 25.589l-0.556-1.086 0.531-0.003 0.562 1.066v0.023h-0.537zM34.258 24.72h-0.621v-0.392h0.621c0.096 0 0.174-0.016 0.234-0.047 0.060-0.032 0.104-0.077 0.132-0.134s0.042-0.121 0.042-0.192c0-0.073-0.014-0.14-0.042-0.203s-0.072-0.113-0.132-0.151-0.138-0.057-0.234-0.057h-0.447v2.044h-0.502v-2.438h0.949c0.191 0 0.354 0.035 0.49 0.104 0.137 0.068 0.242 0.162 0.315 0.283s0.109 0.258 0.109 0.413c0 0.157-0.036 0.294-0.109 0.408s-0.177 0.204-0.315 0.266c-0.136 0.062-0.3 0.094-0.49 0.094zM37.154 25.197v0.392h-1.297v-0.392h1.297zM36.021 23.151v2.438h-0.502v-2.438h0.502zM36.985 24.144v0.382h-1.128v-0.382h1.128zM37.153 23.151v0.393h-1.296v-0.393h1.296zM38.571 23.151v2.438h-0.501v-2.438h0.501zM39.321 23.151v0.393h-1.989v-0.393h1.989zM41.242 25.197v0.392h-1.297v-0.392h1.297zM40.109 23.151v2.438h-0.502v-2.438h0.502zM41.073 24.144v0.382h-1.128v-0.382h1.128zM41.241 23.151v0.393h-1.296v-0.393h1.296zM41.535 23.151h0.909c0.186 0 0.347 0.028 0.48 0.084 0.135 0.056 0.239 0.138 0.311 0.248s0.109 0.244 0.109 0.403c0 0.131-0.022 0.243-0.067 0.337-0.044 0.093-0.105 0.17-0.186 0.233-0.079 0.061-0.172 0.11-0.28 0.147l-0.159 0.084h-0.79l-0.003-0.392h0.588c0.088 0 0.161-0.016 0.219-0.047s0.102-0.075 0.131-0.131c0.030-0.056 0.045-0.12 0.045-0.194 0-0.078-0.014-0.146-0.044-0.203s-0.073-0.1-0.132-0.131c-0.059-0.030-0.133-0.045-0.223-0.045h-0.407v2.044h-0.502v-2.438zM42.898 25.589l-0.556-1.086 0.531-0.003 0.563 1.066v0.023h-0.537zM45.001 24.951c0-0.044-0.007-0.083-0.020-0.117-0.012-0.036-0.036-0.068-0.070-0.097-0.035-0.030-0.083-0.060-0.146-0.089s-0.143-0.059-0.243-0.090c-0.111-0.036-0.215-0.076-0.315-0.121-0.098-0.045-0.185-0.096-0.261-0.156-0.075-0.060-0.134-0.13-0.178-0.209-0.042-0.079-0.064-0.171-0.064-0.276 0-0.102 0.022-0.194 0.067-0.276 0.045-0.084 0.107-0.155 0.188-0.214 0.080-0.060 0.175-0.107 0.285-0.139 0.111-0.032 0.232-0.049 0.363-0.049 0.18 0 0.337 0.032 0.47 0.097s0.238 0.154 0.311 0.266c0.075 0.113 0.112 0.242 0.112 0.387h-0.499c0-0.071-0.015-0.134-0.045-0.188-0.029-0.055-0.074-0.098-0.134-0.129-0.059-0.031-0.134-0.047-0.224-0.047-0.087 0-0.16 0.013-0.218 0.040-0.058 0.026-0.102 0.061-0.131 0.105-0.029 0.044-0.044 0.093-0.044 0.147 0 0.041 0.010 0.079 0.030 0.112 0.021 0.034 0.052 0.065 0.094 0.094s0.092 0.056 0.152 0.082c0.060 0.026 0.13 0.051 0.209 0.075 0.133 0.040 0.249 0.085 0.35 0.136 0.102 0.050 0.186 0.107 0.254 0.169s0.119 0.133 0.154 0.213c0.035 0.079 0.052 0.169 0.052 0.27 0 0.106-0.021 0.201-0.062 0.285s-0.101 0.155-0.179 0.213c-0.078 0.058-0.171 0.102-0.28 0.132s-0.229 0.045-0.363 0.045c-0.12 0-0.239-0.016-0.357-0.047-0.117-0.032-0.224-0.081-0.32-0.146-0.095-0.065-0.171-0.147-0.228-0.248s-0.085-0.219-0.085-0.357h0.504c0 0.076 0.012 0.14 0.035 0.192s0.056 0.095 0.099 0.127c0.044 0.032 0.095 0.056 0.154 0.070 0.060 0.015 0.126 0.022 0.198 0.022 0.087 0 0.158-0.012 0.214-0.037 0.057-0.025 0.099-0.059 0.126-0.102 0.028-0.044 0.042-0.093 0.042-0.147z"></path>
</symbol>
<symbol id="icon-customers5" viewBox="0 0 59 32">
<path fill="#8e8f99" style="fill: var(--color1, #8e8f99)" d="M15.31 25.356c0.14 0.156 0.215 0.352 0.211 0.553 0.007 0.131-0.019 0.262-0.075 0.383s-0.143 0.229-0.252 0.316c-0.273 0.185-0.61 0.276-0.951 0.255h-1.671v-3.504h1.637c0.323-0.019 0.644 0.063 0.907 0.233 0.106 0.080 0.189 0.18 0.245 0.294s0.080 0.238 0.073 0.361c0.010 0.193-0.058 0.383-0.19 0.536-0.127 0.139-0.303 0.236-0.498 0.274 0.222 0.036 0.422 0.143 0.565 0.3zM13.349 24.827h0.7c0.159 0.011 0.317-0.031 0.445-0.116 0.053-0.043 0.093-0.096 0.12-0.155s0.037-0.123 0.031-0.187c0.005-0.063-0.006-0.127-0.031-0.186s-0.066-0.113-0.117-0.156c-0.132-0.088-0.295-0.13-0.458-0.118h-0.688v0.919zM14.562 26.171c0.056-0.044 0.1-0.099 0.129-0.161s0.041-0.129 0.036-0.195c0.004-0.068-0.009-0.135-0.038-0.198s-0.074-0.118-0.131-0.162c-0.137-0.091-0.305-0.136-0.475-0.127h-0.734v0.964h0.744c0.167 0.009 0.333-0.034 0.47-0.122z"></path>
<path fill="#8e8f99" style="fill: var(--color1, #8e8f99)" d="M18.656 26.862l-0.911-1.369h-0.342v1.369h-0.783v-3.504h1.483c0.374-0.023 0.744 0.083 1.033 0.298 0.207 0.19 0.332 0.441 0.353 0.707s-0.066 0.529-0.242 0.743c-0.183 0.189-0.433 0.314-0.707 0.356l0.97 1.4h-0.852zM17.403 25.015h0.641c0.445 0 0.667-0.177 0.667-0.531 0.005-0.072-0.008-0.145-0.036-0.212s-0.072-0.13-0.128-0.181c-0.141-0.105-0.322-0.156-0.504-0.142h-0.648l0.008 1.067z"></path>
<path fill="#8e8f99" style="fill: var(--color1, #8e8f99)" d="M22.939 26.157h-1.561l-0.276 0.705h-0.821l1.434-3.465h0.888l1.428 3.465h-0.822l-0.27-0.705zM22.73 25.627l-0.57-1.479-0.57 1.479h1.141z"></path>
<path fill="#8e8f99" style="fill: var(--color1, #8e8f99)" d="M28.299 26.863h-0.778l-1.744-2.383v2.383h-0.776v-3.504h0.776l1.744 2.397v-2.397h0.778v3.504z"></path>
<path fill="#8e8f99" style="fill: var(--color1, #8e8f99)" d="M32.737 26.024c-0.161 0.265-0.406 0.48-0.704 0.618-0.338 0.154-0.714 0.23-1.093 0.221h-1.384v-3.504h1.384c0.378-0.009 0.754 0.065 1.093 0.216 0.298 0.135 0.543 0.348 0.704 0.611 0.16 0.285 0.243 0.6 0.243 0.919s-0.083 0.634-0.243 0.919zM31.847 25.94c0.222-0.233 0.344-0.529 0.344-0.836s-0.122-0.603-0.344-0.836c-0.268-0.211-0.618-0.318-0.974-0.298h-0.54v2.268h0.54c0.355 0.020 0.705-0.087 0.974-0.298z"></path>
<path fill="#8e8f99" style="fill: var(--color1, #8e8f99)" d="M23.425 3.867c0 0 10.038 3.412 9.825 8.349v8.351c0 0-10.031-3.413-9.821-8.351l-0.004-8.349z"></path>
<path fill="#8e8f99" style="fill: var(--color1, #8e8f99)" d="M42.194 18.611c1.896-1.175 4.089-1.902 6.378-2.116v-2.614c-2.638 0.915-4.875 2.575-6.378 4.73z"></path>
<path fill="#8e8f99" style="fill: var(--color1, #8e8f99)" d="M41.055 19.399c1.552-2.813 4.242-4.983 7.517-6.065v-7.532c0 0-14.296 4.86-13.993 11.891v11.889c0 0 0.637-0.217 1.639-0.625 0-0.38 0-0.764 0.046-1.149 0.296-3.264 2.020-6.289 4.792-8.409z"></path>
<path fill="#8e8f99" style="fill: var(--color1, #8e8f99)" d="M39.695 23.815c0.075-0.825 0.243-1.64 0.5-2.434-1.726 1.831-2.772 4.103-2.989 6.497-0.021 0.226-0.032 0.452-0.038 0.685 0.812-0.351 1.757-0.789 2.75-1.304-0.253-1.132-0.328-2.291-0.222-3.443z"></path>
<path fill="#8e8f99" style="fill: var(--color1, #8e8f99)" d="M40.264 23.858c-0.095 1.042-0.036 2.090 0.177 3.117 3.906-2.104 8.294-5.355 8.125-9.284v-0.342c-2.791 0.281-5.401 1.379-7.431 3.126-0.475 1.082-0.769 2.222-0.871 3.383z"></path>
</symbol>
<symbol id="icon-customers6" viewBox="0 0 59 32">
<path fill="#8e8f99" style="fill: var(--color1, #8e8f99)" d="M30.588 15.682c-0.254-0.338-0.375-0.737-0.346-1.138v-1.65c0-0.506 0.115-0.89 0.344-1.153s0.624-0.394 1.183-0.393c0.525 0 0.898 0.112 1.119 0.336 0.24 0.286 0.358 0.635 0.331 0.987v0.388h-0.94v-0.393c0.003-0.129-0.006-0.257-0.027-0.384-0.014-0.087-0.061-0.168-0.134-0.228-0.096-0.066-0.218-0.097-0.34-0.089-0.129-0.008-0.256 0.025-0.358 0.094-0.082 0.067-0.136 0.156-0.156 0.252-0.027 0.135-0.039 0.271-0.037 0.408v2.003c-0.015 0.193 0.027 0.387 0.121 0.562 0.047 0.060 0.112 0.107 0.188 0.136s0.16 0.041 0.242 0.032c0.12 0.009 0.24-0.024 0.333-0.091 0.077-0.066 0.126-0.151 0.14-0.243 0.022-0.133 0.032-0.267 0.029-0.401v-0.406h0.94v0.371c0.026 0.367-0.088 0.732-0.325 1.038-0.216 0.245-0.584 0.368-1.125 0.368s-0.949-0.131-1.181-0.403z"></path>
<path fill="#8e8f99" style="fill: var(--color1, #8e8f99)" d="M34.501 15.699c-0.237-0.257-0.356-0.631-0.356-1.127v-1.736c0-0.49 0.119-0.861 0.356-1.113s0.634-0.377 1.191-0.376c0.553 0 0.947 0.125 1.185 0.376 0.237 0.252 0.358 0.623 0.358 1.113v1.736c0 0.49-0.121 0.866-0.362 1.125s-0.634 0.388-1.181 0.388-0.951-0.131-1.191-0.386zM36.129 15.282c0.085-0.161 0.124-0.337 0.113-0.514v-2.125c0.011-0.173-0.027-0.346-0.111-0.504-0.048-0.061-0.114-0.109-0.192-0.138s-0.164-0.040-0.248-0.030c-0.084-0.010-0.17 0-0.248 0.030s-0.145 0.077-0.193 0.138c-0.086 0.157-0.124 0.33-0.113 0.504v2.136c-0.012 0.177 0.027 0.353 0.113 0.514 0.055 0.054 0.122 0.098 0.198 0.127s0.158 0.045 0.242 0.045 0.166-0.015 0.242-0.045c0.076-0.030 0.143-0.073 0.198-0.127v-0.010z"></path>
<path fill="#8e8f99" style="fill: var(--color1, #8e8f99)" d="M38.364 11.398h1.012l0.761 3.203 0.778-3.203h0.984l0.099 4.623h-0.728l-0.078-3.213-0.751 3.213h-0.584l-0.778-3.225-0.072 3.225h-0.735l0.091-4.623z"></path>
<path fill="#8e8f99" style="fill: var(--color1, #8e8f99)" d="M43.133 11.398h1.576c0.908 0 1.362 0.438 1.362 1.313 0 0.838-0.478 1.257-1.434 1.256h-0.537v2.055h-0.973l0.006-4.623zM44.479 13.374c0.096 0.011 0.194 0.003 0.286-0.022s0.177-0.067 0.249-0.124c0.112-0.156 0.161-0.339 0.14-0.522 0.005-0.141-0.011-0.282-0.047-0.42-0.014-0.046-0.038-0.089-0.072-0.127s-0.075-0.069-0.123-0.093c-0.135-0.056-0.284-0.081-0.434-0.074h-0.377v1.382h0.377z"></path>
<path fill="#8e8f99" style="fill: var(--color1, #8e8f99)" d="M47.474 11.398h1.045l1.072 4.623h-0.907l-0.212-1.066h-0.932l-0.218 1.066h-0.92l1.072-4.623zM48.367 14.419l-0.364-1.941-0.364 1.941h0.728z"></path>
<path fill="#8e8f99" style="fill: var(--color1, #8e8f99)" d="M50.456 11.398h0.681l1.304 2.637v-2.637h0.807v4.623h-0.648l-1.311-2.753v2.753h-0.835l0.002-4.623z"></path>
<path fill="#8e8f99" style="fill: var(--color1, #8e8f99)" d="M55.139 14.258l-1.084-2.854h0.912l0.661 1.833 0.621-1.833h0.893l-1.070 2.854v1.763h-0.934v-1.763z"></path>
<path fill="#8e8f99" style="fill: var(--color1, #8e8f99)" d="M32.090 18.042v0.242h-0.794v1.879h-0.333v-1.879h-0.798v-0.242h1.924z"></path>
<path fill="#8e8f99" style="fill: var(--color1, #8e8f99)" d="M34.578 20.163h-0.257c-0.026 0.001-0.052-0.006-0.072-0.020-0.019-0.012-0.034-0.029-0.043-0.049l-0.23-0.504h-1.101l-0.23 0.504c-0.007 0.021-0.018 0.041-0.035 0.057-0.020 0.014-0.046 0.021-0.072 0.020h-0.257l0.973-2.12h0.339l0.984 2.112zM32.968 19.375h0.918l-0.389-0.863c-0.029-0.065-0.053-0.132-0.072-0.2-0.014 0.040-0.025 0.079-0.037 0.113l-0.035 0.089-0.385 0.861z"></path>
<path fill="#8e8f99" style="fill: var(--color1, #8e8f99)" d="M36.256 19.954c0.061 0.003 0.122 0.003 0.183 0 0.053-0.005 0.105-0.013 0.156-0.025 0.048-0.010 0.094-0.023 0.14-0.039 0.043-0.015 0.086-0.034 0.13-0.052v-0.477h-0.389c-0.010 0-0.019-0.001-0.028-0.004s-0.017-0.007-0.024-0.013c-0.006-0.005-0.011-0.011-0.015-0.017s-0.005-0.014-0.005-0.021v-0.163h0.755v0.813c-0.062 0.038-0.127 0.072-0.195 0.101-0.069 0.030-0.142 0.054-0.216 0.072-0.080 0.020-0.161 0.035-0.243 0.044-0.094 0.009-0.189 0.014-0.284 0.013-0.168 0.001-0.334-0.026-0.49-0.079-0.146-0.050-0.278-0.126-0.389-0.222-0.108-0.097-0.194-0.211-0.251-0.336-0.061-0.141-0.092-0.29-0.090-0.44-0.002-0.151 0.028-0.301 0.088-0.443 0.056-0.126 0.141-0.24 0.251-0.336 0.111-0.095 0.243-0.17 0.389-0.22 0.167-0.054 0.343-0.081 0.521-0.079 0.091-0 0.181 0.006 0.27 0.018 0.079 0.011 0.157 0.029 0.232 0.054 0.068 0.022 0.133 0.050 0.195 0.084 0.060 0.033 0.116 0.070 0.169 0.111l-0.093 0.131c-0.007 0.012-0.018 0.022-0.032 0.029s-0.029 0.011-0.044 0.011c-0.022-0.001-0.042-0.006-0.060-0.017-0.029-0.013-0.060-0.030-0.095-0.050-0.041-0.022-0.085-0.041-0.13-0.057-0.058-0.020-0.118-0.036-0.179-0.047-0.081-0.013-0.164-0.019-0.247-0.018-0.128-0.001-0.256 0.019-0.376 0.059-0.108 0.038-0.206 0.095-0.286 0.168-0.081 0.076-0.142 0.166-0.181 0.264-0.087 0.23-0.087 0.477 0 0.707 0.043 0.1 0.109 0.191 0.195 0.267 0.080 0.073 0.177 0.13 0.284 0.168 0.124 0.037 0.255 0.051 0.385 0.042z"></path>
<path fill="#8e8f99" style="fill: var(--color1, #8e8f99)" d="M39.357 19.921h1.062v0.242h-1.387v-2.12h0.333l-0.008 1.879z"></path>
<path fill="#8e8f99" style="fill: var(--color1, #8e8f99)" d="M41.524 20.162h-0.333v-2.12h0.333v2.12z"></path>
<path fill="#8e8f99" style="fill: var(--color1, #8e8f99)" d="M42.761 18.052c0.020 0.010 0.037 0.023 0.051 0.039l1.422 1.598c-0.002-0.025-0.002-0.050 0-0.076 0-0.023 0-0.047 0-0.069v-1.511h0.29v2.129h-0.167c-0.025 0.002-0.050-0.002-0.072-0.012-0.020-0.011-0.038-0.024-0.053-0.040l-1.42-1.597c0 0.025 0 0.049 0 0.072s0 0.045 0 0.066v1.511h-0.278v-2.12h0.173c0.019 0 0.037 0.003 0.054 0.010z"></path>
<path fill="#8e8f99" style="fill: var(--color1, #8e8f99)" d="M46.974 18.042v0.233h-1.179v0.7h0.955v0.225h-0.955v0.724h1.179v0.233h-1.521v-2.115h1.521z"></path>
<path fill="#8e8f99" style="fill: var(--color1, #8e8f99)" d="M12.112 4.948l14.772 3.619v12.683l-14.772-3.618v-12.685zM11.164 3.867v14.382l16.666 4.084v-14.38l-16.666-4.086z"></path>
<path fill="#8e8f99" style="fill: var(--color1, #8e8f99)" d="M20.096 29.010l-16.667-4.088v-14.381l16.667 4.086v14.382z"></path>
<path fill="#8e8f99" style="fill: var(--color1, #8e8f99)" d="M11.44 4.785l14.58 3.574-6.2 5.352-14.582-3.576 6.202-5.35zM11.164 3.867l-7.735 6.675 16.667 4.086 7.733-6.675-16.666-4.086z"></path>
<path fill="#8e8f99" style="fill: var(--color1, #8e8f99)" d="M21.034 28.201l6.796-5.866-6.796-1.667v7.532z"></path>
</symbol>
<symbol id="icon-Ellipse" viewBox="0 0 32 32">
<path fill="#e7e9fc" style="fill: var(--color1, #e7e9fc)" d="M32 16c0 8.837-7.163 16-16 16s-16-7.163-16-16c0-8.837 7.163-16 16-16s16 7.163 16 16z"></path>
<path fill="none" stroke="#000" style="stroke: var(--color2, #000)" stroke-linejoin="miter" stroke-linecap="butt" stroke-miterlimit="4" stroke-width="1.3333" d="M31.333 16c0 8.468-6.865 15.333-15.333 15.333s-15.333-6.865-15.333-15.333c0-8.468 6.865-15.333 15.333-15.333s15.333 6.865 15.333 15.333z"></path>
</symbol>
<symbol id="icon-Vector" viewBox="0 0 32 32">
<path d="M32 3.223l-3.223-3.223-12.777 12.777-12.777-12.777-3.223 3.223 12.777 12.777-12.777 12.777 3.223 3.223 12.777-12.777 12.777 12.777 3.223-3.223-12.777-12.777 12.777-12.777z"></path>
</symbol>
<symbol id="icon-send" viewBox="0 0 38 32">
<path fill="#fff" style="fill: var(--color1, #fff)" d="M38.4 0l-38.4 18 12.272 3.788 18.928-14.788-14.397 16.186 0.012 0.004-0.014-0.004v8.814l6.882-6.691 8.718 2.691 6-28z"></path>
</symbol>
<symbol id="icon-name" viewBox="0 0 32 32">
<path fill="#4d5ae5" style="fill: var(--color1, #4d5ae5)" d="M16 16c4.42 0 8-3.58 8-8s-3.58-8-8-8c-4.42 0-8 3.58-8 8s3.58 8 8 8zM16 20c-5.34 0-16 2.68-16 8v2c0 1.1 0.9 2 2 2h28c1.1 0 2-0.9 2-2v-2c0-5.32-10.66-8-16-8z"></path>
</symbol>
<symbol id="icon-number" viewBox="0 0 32 32">
<path d="M28.865 21.822l-4.525-0.517c-1.087-0.125-2.155 0.249-2.921 1.015l-3.278 3.278c-5.041-2.565-9.174-6.68-11.739-11.739l3.296-3.296c0.766-0.766 1.14-1.835 1.015-2.921l-0.517-4.489c-0.214-1.799-1.728-3.153-3.545-3.153h-3.082c-2.013 0-3.687 1.675-3.563 3.687 0.944 15.213 13.111 27.362 28.306 28.306 2.013 0.125 3.687-1.55 3.687-3.563v-3.082c0.018-1.799-1.336-3.313-3.135-3.527z"></path>
</symbol>
<symbol id="icon-email" viewBox="0 0 43 32">
<path d="M37.333 0h-32c-2.2 0-3.98 1.8-3.98 4l-0.020 24c0 2.2 1.8 4 4 4h32c2.2 0 4-1.8 4-4v-24c0-2.2-1.8-4-4-4zM36.533 8.5l-14.14 8.84c-0.64 0.4-1.48 0.4-2.12 0l-14.14-8.84c-0.5-0.32-0.8-0.86-0.8-1.44 0-1.34 1.46-2.14 2.6-1.44l13.4 8.38 13.4-8.38c1.14-0.7 2.6 0.1 2.6 1.44 0 0.58-0.3 1.12-0.8 1.44z"></path>
</symbol>
<symbol id="icon-Checkbox" viewBox="0 0 32 32">
<path stroke-linejoin="miter" stroke-linecap="butt" stroke-miterlimit="4" stroke-width="2" d="M4 1h24c1.657 0 3 1.343 3 3v24c0 1.657-1.343 3-3 3h-24c-1.657 0-3-1.343-3-3v-24c0-1.657 1.343-3 3-3z"></path>
</symbol>
<symbol id="icon-checkmark" viewBox="0 0 32 32">
<path d="M27 4l-15 15-7-7-5 5 12 12 20-20z"></path>
</symbol>
<symbol id="icon-customers11" viewBox="0 0 59 32">
<path d="M21.714 4l4.005 3.815-7.433-0.003v18.509h19.429v-7.076l4 3.811v-19.055h-20zM37.538 18.795l-11.354-10.817h11.354v10.817zM34.013 23.613h-12.653v-12.448h0.894v11.606h11.759v0.843zM23.885 29.749l0.471-0.97h0.388l-0.683 1.283v0.749h-0.353v-0.749l-0.683-1.283h0.389l0.471 0.97zM25.622 28.779h0.083l0.767 2.031h-0.368l-0.165-0.476h-0.786l-0.165 0.475h-0.367l0.765-2.032h0.234zM25.249 30.058h0.595l-0.297-0.861-0.297 0.862zM27.705 29.722c-0.071 0.050-0.133 0.099-0.189 0.149-0.059 0.054-0.107 0.113-0.141 0.177-0.034 0.062-0.051 0.134-0.051 0.217v-0c-0 0.003-0 0.007-0 0.010 0 0.106 0.030 0.206 0.080 0.288l0.001 0.002c0.055 0.085 0.132 0.155 0.227 0.201 0.098 0.050 0.215 0.074 0.351 0.074h-0c0.002 0 0.005 0 0.007 0 0.11 0 0.216-0.019 0.308-0.053l0.005-0.002c0.074-0.028 0.143-0.066 0.203-0.113l0.118 0.139h0.389l-0.297-0.351-0.002 0.002c0.071-0.097 0.123-0.21 0.15-0.338 0.019-0.088 0.029-0.181 0.029-0.28h-0.29v-0.001c0 0.005 0 0.010 0 0.015 0 0.133-0.032 0.259-0.088 0.365l-0.402-0.474 0.144-0.105c0.050-0.036 0.096-0.077 0.139-0.123l-0 0c0.039-0.041 0.072-0.089 0.097-0.145l-0.001 0.003c0.024-0.054 0.037-0.114 0.037-0.177 0-0.168-0.095-0.314-0.236-0.388-0.074-0.042-0.163-0.063-0.267-0.063-0.106 0-0.2 0.021-0.28 0.063l-0.003 0.001c-0.076 0.039-0.14 0.099-0.184 0.175s-0.065 0.167-0.065 0.273v-0c0 0 0 0 0 0 0 0.073 0.016 0.142 0.043 0.201l0.003 0.006c0.033 0.070 0.074 0.135 0.119 0.193l0.010 0.013c0.014 0.019 0.029 0.037 0.034 0.044zM27.871 29.926l0.451 0.532 0.001-0.001c-0.031 0.024-0.065 0.045-0.104 0.064-0.073 0.034-0.147 0.051-0.225 0.051h0.001c-0.004 0-0.008 0-0.012 0-0.063 0-0.122-0.015-0.171-0.042l-0.001-0.001c-0.047-0.027-0.085-0.066-0.112-0.115l0.001 0.002c-0.025-0.047-0.039-0.1-0.039-0.157 0-0.070 0.021-0.135 0.057-0.188l0.001-0.002c0.030-0.043 0.067-0.081 0.109-0.114l0.042-0.030zM27.951 29.554l-0.023-0.030c-0.037-0.049-0.066-0.094-0.087-0.138l0.001 0.002c-0.021-0.040-0.033-0.086-0.033-0.134 0-0.042 0.009-0.081 0.024-0.115l0.001-0.001c0.033-0.070 0.104-0.119 0.187-0.119 0.002 0 0.004 0 0.006 0l-0.001 0c0.004-0 0.008-0 0.012-0 0.109 0 0.199 0.087 0.202 0.196v-0c0 0.003 0 0.007 0 0.010 0 0.049-0.014 0.095-0.038 0.133l-0.001 0.001c-0.034 0.044-0.075 0.083-0.125 0.113l-0.125 0.084zM31.505 30.15c-0.011 0.133-0.049 0.251-0.111 0.355s-0.152 0.185-0.266 0.245c-0.114 0.059-0.254 0.089-0.417 0.089-0.126 0-0.239-0.022-0.339-0.067s-0.186-0.11-0.258-0.193c-0.072-0.084-0.127-0.185-0.164-0.303s-0.057-0.25-0.057-0.397v-0.168c-0-0.006-0-0.012-0-0.017 0-0.135 0.021-0.266 0.057-0.379l0.002-0.006c0.036-0.11 0.093-0.211 0.166-0.296s0.159-0.15 0.261-0.194c0.102-0.045 0.217-0.067 0.345-0.067l-0.001 0c0.009-0 0.018-0 0.027-0 0.14 0 0.272 0.033 0.384 0.090l0.003 0.002c0.105 0.056 0.194 0.14 0.256 0.245l-0.002-0.004c0.063 0.108 0.104 0.231 0.117 0.365h-0.349c-0.009-0.087-0.030-0.162-0.061-0.224-0.031-0.063-0.077-0.11-0.136-0.143-0.061-0.033-0.14-0.050-0.237-0.050h0.001c-0.004-0-0.008-0-0.012-0-0.072 0-0.14 0.017-0.198 0.045l-0.002 0.001c-0.059 0.030-0.109 0.075-0.147 0.13-0.040 0.058-0.070 0.129-0.090 0.213s-0.030 0.179-0.030 0.287v0.171c-0 0.004-0 0.008-0 0.012 0 0.095 0.010 0.188 0.027 0.268l0.001 0.004c0.016 0.076 0.045 0.147 0.083 0.209l0.001 0.002c0.035 0.056 0.084 0.103 0.144 0.137l-0.002-0.001c0.060 0.032 0.129 0.050 0.202 0.050 0.004 0 0.009-0 0.012-0l-0.001-0c0.007 0 0.015 0 0.022 0 0.080 0 0.155-0.018 0.22-0.048l0.002-0.001c0.059-0.030 0.107-0.077 0.139-0.137l-0.002 0.004c0.035-0.069 0.058-0.145 0.066-0.228h0.349zM33.442 29.851v-0.112c0-0.006 0-0.013 0-0.020 0-0.14-0.022-0.274-0.064-0.4l0.003 0.009c-0.038-0.12-0.097-0.224-0.172-0.313l0.001 0.001c-0.072-0.084-0.161-0.151-0.262-0.195l-0.005-0.002c-0.103-0.046-0.217-0.069-0.343-0.069-0.125 0-0.239 0.023-0.342 0.069-0.103 0.045-0.191 0.11-0.267 0.197-0.074 0.086-0.131 0.189-0.173 0.311-0.039 0.117-0.062 0.253-0.062 0.393 0 0.006 0 0.013 0 0.019v-0.001 0.111c0 0.153 0.021 0.291 0.062 0.413 0.040 0.12 0.1 0.223 0.176 0.312l-0.001-0.001c0.075 0.086 0.164 0.151 0.266 0.197 0.103 0.045 0.217 0.067 0.342 0.067s0.24-0.023 0.343-0.067c0.103-0.046 0.192-0.111 0.265-0.197 0.074-0.086 0.131-0.189 0.171-0.311 0.038-0.117 0.060-0.252 0.060-0.392 0-0.007-0-0.015-0-0.022v0.001zM33.093 29.737v0.114c0 0.113-0.011 0.214-0.034 0.301-0.019 0.084-0.052 0.158-0.096 0.224l0.002-0.002c-0.039 0.057-0.091 0.103-0.151 0.134l-0.002 0.001c-0.058 0.028-0.127 0.045-0.199 0.045-0.003 0-0.006-0-0.009-0h0c-0.003 0-0.006 0-0.009 0-0.072 0-0.14-0.016-0.201-0.046l0.003 0.001c-0.063-0.033-0.115-0.079-0.155-0.134l-0.001-0.001c-0.043-0.063-0.077-0.137-0.096-0.217l-0.001-0.005c-0.022-0.087-0.034-0.186-0.034-0.288 0-0.005 0-0.010 0-0.014v0.001-0.114c0-0.114 0.011-0.214 0.034-0.301 0.022-0.087 0.054-0.16 0.095-0.219 0.040-0.056 0.092-0.101 0.153-0.132l0.002-0.001c0.058-0.029 0.126-0.046 0.198-0.046 0.003 0 0.006 0 0.010 0h-0c0.077 0 0.146 0.015 0.208 0.046 0.061 0.030 0.113 0.074 0.154 0.134 0.043 0.059 0.075 0.132 0.097 0.219s0.033 0.187 0.033 0.3z"></path>
</symbol>
<symbol id="icon-customers22" viewBox="0 0 59 32">
<path d="M28.636 3.392c0.131 0 0.273 0.012 0.414 0.024l0.041 0.003 0.042 0.002c0.707 0.051 1.399 0.16 1.982 0.303v-1.636l0.084 0.018c-0.689-0.178-1.402-0.296-2.172-0.352-0.267-0.020-0.553-0.033-0.844-0.041h-0.247c-1.488 0.005-2.932 0.202-4.188 0.539l-0.118 0.026c-1.569 0.402-3.050 1.022-4.33 1.784v16.23l-0.093 0.047c1.311-0.724 2.722-1.29 4.332-1.7l-0.129 0.029c1.172-0.307 2.389-0.502 3.688-0.576h0.047c0.201-0.010 0.402-0.016 0.609-0.018v-1.662l-0.013 0c-1.639 0.022-3.23 0.244-4.612 0.614-0.559 0.146-1.1 0.302-1.607 0.476l-0.578 0.197v-12.653l0.247-0.119-0.096 0.042c1.852-0.895 3.9-1.447 6.106-1.575l-0.001 0c0.009-0.001 0.018-0.001 0.027-0.001s0.018 0 0.026 0.001c0.23-0.011 0.461-0.017 0.688-0.017h0.26c0.12 0.003 0.24 0.006 0.36 0.013h0.078zM31.516 5.063c0.363 0.029 0.738 0.042 1.119 0.042 1.569-0.006 3.087-0.212 4.533-0.594l-0.125 0.028c1.61-0.411 3.020-0.977 4.331-1.701l-0.094 0.047v15.937c-1.281 0.761-2.762 1.381-4.33 1.783l-0.118 0.026c-1.257 0.337-2.7 0.533-4.189 0.539h-0.004c-0.031 0-0.067 0-0.103 0-1.093 0-2.153-0.137-3.166-0.394l0.089 0.019v-16.041c0.246 0.057 0.499 0.109 0.756 0.153 0.422 0.071 0.867 0.123 1.301 0.155zM39.627 5.188l-0.578 0.194c-0.531 0.179-1.069 0.339-1.607 0.481-1.44 0.385-3.094 0.61-4.8 0.616h-0.004c-0.377 0-0.725-0.010-1.059-0.032l-0.461-0.030v13.015l0.396 0.034c0.337 0.031 0.728 0.049 1.124 0.049 0.001 0 0.002 0 0.003 0h-0c1.347-0.006 2.65-0.184 3.891-0.513l-0.107 0.024c1.134-0.288 2.118-0.652 3.051-1.104l-0.094 0.041 0.247-0.119v-12.657z"></path>
<path d="M20.421 25.835c-0.155-0.161-0.372-0.261-0.613-0.261-0.011 0-0.021 0-0.032 0.001l0.002-0c-0.004-0-0.008-0-0.012-0-0.129 0-0.252 0.026-0.365 0.072l0.006-0.002c-0.22 0.088-0.39 0.26-0.473 0.475l-0.002 0.006c-0.045 0.114-0.067 0.235-0.066 0.358v2.167c-0.006 0.153 0.024 0.305 0.085 0.445 0.051 0.112 0.125 0.211 0.217 0.291 0.086 0.073 0.189 0.126 0.297 0.154 0.106 0.029 0.215 0.045 0.324 0.045 0.12 0.001 0.24-0.025 0.349-0.075 0.325-0.145 0.548-0.465 0.549-0.837v-0.242h-0.567v0.193c0 0.004 0 0.009 0 0.013 0 0.065-0.012 0.127-0.035 0.183l0.001-0.003c-0.019 0.048-0.047 0.089-0.082 0.122l-0 0c-0.065 0.050-0.147 0.081-0.237 0.083h-0c-0.010 0.001-0.022 0.002-0.034 0.002-0.095 0-0.18-0.046-0.232-0.118l-0.001-0.001c-0.048-0.076-0.076-0.169-0.076-0.269 0-0.008 0-0.016 0.001-0.023l-0 0.001v-2.022c-0.003-0.112 0.021-0.223 0.070-0.324 0.052-0.080 0.142-0.133 0.244-0.133 0.012 0 0.023 0.001 0.035 0.002l-0.001-0c0.003-0 0.007-0 0.011-0 0.099 0 0.187 0.048 0.242 0.122l0.001 0.001c0.063 0.083 0.097 0.186 0.094 0.291v0.187h0.561v-0.221c0-0.003 0-0.006 0-0.010 0-0.133-0.025-0.26-0.072-0.377l0.002 0.007c-0.045-0.119-0.109-0.22-0.191-0.305l0 0z"></path>
<path d="M23.788 25.811c-0.173-0.147-0.399-0.237-0.645-0.239h-0c-0.115 0-0.23 0.021-0.338 0.061-0.234 0.084-0.418 0.256-0.517 0.475l-0.002 0.006c-0.058 0.131-0.086 0.274-0.083 0.419v2.079c-0.004 0.146 0.025 0.291 0.083 0.426 0.051 0.111 0.127 0.211 0.22 0.29 0.087 0.080 0.189 0.143 0.299 0.183 0.107 0.040 0.222 0.061 0.337 0.061 0.248-0 0.474-0.093 0.646-0.245l-0.001 0.001c0.090-0.081 0.163-0.18 0.213-0.29 0.058-0.134 0.086-0.28 0.083-0.426v-2.079c0-0.005 0-0.012 0-0.018 0-0.145-0.031-0.283-0.086-0.408l0.003 0.006c-0.053-0.118-0.125-0.219-0.213-0.302l-0-0zM23.523 28.614c0.001 0.010 0.001 0.021 0.001 0.032 0 0.106-0.044 0.201-0.114 0.269l-0 0c-0.072 0.061-0.165 0.097-0.267 0.097s-0.195-0.037-0.268-0.098l0.001 0c-0.070-0.068-0.114-0.163-0.114-0.268 0-0.012 0.001-0.023 0.002-0.034l-0 0.001v-2.079c-0.001-0.010-0.001-0.021-0.001-0.032 0-0.105 0.044-0.201 0.114-0.268l0-0c0.072-0.060 0.165-0.097 0.267-0.097s0.195 0.037 0.267 0.098l-0.001-0c0.070 0.068 0.113 0.163 0.113 0.268 0 0.012-0.001 0.023-0.002 0.034l0-0.001v2.079z"></path>
<path d="M28.21 29.543v-3.937h-0.545l-0.716 2.084h-0.009l-0.722-2.083h-0.538v3.937h0.562v-2.395h0.010l0.55 1.692h0.281l0.555-1.692h0.010v2.394h0.562z"></path>
<path d="M31.405 25.882c-0.087-0.097-0.196-0.171-0.318-0.215-0.115-0.039-0.247-0.061-0.385-0.061-0.008 0-0.016 0-0.024 0l0.001-0h-0.835v3.937h0.561v-1.538h0.289c0.175 0.007 0.349-0.030 0.506-0.109 0.128-0.072 0.232-0.174 0.305-0.297l0.002-0.004c0.062-0.098 0.107-0.214 0.128-0.337l0.001-0.006c0.019-0.124 0.030-0.267 0.030-0.412 0-0.012-0-0.025-0-0.037l0 0.002c0.006-0.189-0.013-0.377-0.055-0.562-0.040-0.142-0.111-0.264-0.207-0.362l0 0zM31.115 27.082c-0.002 0.075-0.021 0.145-0.053 0.208l0.001-0.003c-0.033 0.061-0.083 0.108-0.143 0.137l-0.002 0.001c-0.069 0.032-0.15 0.050-0.235 0.050-0.010 0-0.020-0-0.030-0.001l0.001 0h-0.256v-1.338h0.289c0.008-0 0.018-0.001 0.028-0.001 0.082 0 0.159 0.018 0.228 0.051l-0.003-0.001c0.058 0.034 0.103 0.083 0.131 0.143l0.001 0.002c0.031 0.069 0.047 0.143 0.049 0.219v0.262c0 0.092 0.006 0.187 0 0.271h-0.006z"></path>
<path d="M34.062 25.606h-0.46l-0.867 3.937h0.561l0.165-0.846h0.765l0.165 0.846h0.561l-0.889-3.937zM33.544 28.161l0.276-1.426h0.010l0.274 1.427h-0.56z"></path>
<path d="M37.686 27.977h-0.010l-0.847-2.371h-0.539v3.937h0.561v-2.367h0.011l0.857 2.367h0.527v-3.937h-0.56v2.371z"></path>
<path d="M41.113 25.606l-0.451 1.566h-0.011l-0.451-1.566h-0.593l0.77 2.273v1.663h0.561v-1.664l0.77-2.273h-0.594z"></path>
<path d="M18.857 30.654h0.27v0.758h0.183v-0.758h0.269v-0.156h-0.722v0.155z"></path>
<path d="M21.13 30.498l-0.354 0.914h0.195l0.075-0.208h0.364l0.078 0.208h0.2l-0.363-0.914h-0.195zM21.101 31.051l0.124-0.339 0.124 0.339h-0.248z"></path>
<path d="M23.376 31.075h0.211v0.118c-0.059 0.048-0.135 0.077-0.217 0.077h-0c-0.004 0-0.009 0-0.013 0-0.073 0-0.139-0.034-0.181-0.087l-0-0c-0.043-0.061-0.068-0.136-0.068-0.218 0-0.007 0-0.014 0.001-0.021l-0 0.001c0-0.203 0.088-0.305 0.263-0.305 0.006-0.001 0.013-0.001 0.020-0.001 0.090 0 0.165 0.062 0.187 0.145l0 0.001 0.181-0.035c-0.039-0.178-0.167-0.269-0.387-0.269-0.004-0-0.008-0-0.012-0-0.118 0-0.226 0.045-0.308 0.118l0-0c-0.082 0.081-0.132 0.193-0.132 0.317 0 0.012 0 0.024 0.001 0.036l-0-0.002c-0 0.006-0 0.013-0 0.021 0 0.123 0.045 0.236 0.119 0.323l-0.001-0.001c0.081 0.083 0.194 0.135 0.319 0.135 0.010 0 0.020-0 0.029-0.001l-0.001 0c0.004 0 0.010 0 0.015 0 0.144 0 0.275-0.055 0.373-0.146l-0 0v-0.36h-0.395v0.154z"></path>
<path d="M25.67 30.498h-0.185v0.914h0.64v-0.155h-0.455v-0.759z"></path>
<path d="M27.61 30.498h-0.185v0.914h0.185v-0.914z"></path>
<path d="M29.507 31.109l-0.375-0.61h-0.178v0.914h0.171v-0.597l0.367 0.597h0.184v-0.914h-0.169v0.61z"></path>
<path d="M31.221 31.010h0.455v-0.156h-0.455v-0.2h0.49v-0.156h-0.674v0.914h0.693v-0.155h-0.509v-0.247z"></path>
<path d="M35.378 30.859h-0.36v-0.36h-0.183v0.914h0.183v-0.4h0.36v0.4h0.184v-0.914h-0.184v0.361z"></path>
<path d="M37.103 31.010h0.457v-0.156h-0.457v-0.2h0.491v-0.156h-0.674v0.914h0.691v-0.155h-0.509v-0.247z"></path>
<path d="M39.442 31.010c0.159-0.025 0.24-0.109 0.24-0.254 0.001-0.008 0.002-0.017 0.002-0.026 0-0.073-0.036-0.138-0.091-0.177l-0.001-0c-0.068-0.035-0.147-0.055-0.232-0.055-0.013 0-0.025 0-0.037 0.001l0.002-0h-0.387v0.914h0.184v-0.383h0.036c0.004-0 0.010-0 0.015-0 0.036 0 0.070 0.008 0.101 0.022l-0.002-0.001c0.027 0.016 0.049 0.039 0.065 0.066l0.199 0.29h0.219l-0.111-0.178c-0.050-0.089-0.118-0.163-0.2-0.218l-0.002-0.001zM39.257 30.883h-0.136v-0.229h0.145c0.012-0.001 0.025-0.002 0.039-0.002 0.053 0 0.104 0.009 0.151 0.024l-0.003-0.001c0.025 0.022 0.040 0.054 0.040 0.090 0 0.039-0.019 0.074-0.048 0.096l-0 0c-0.046 0.015-0.098 0.023-0.153 0.023-0.012 0-0.024-0-0.036-0.001l0.002 0z"></path>
<path d="M41.206 31.010h0.455v-0.156h-0.455v-0.2h0.491v-0.156h-0.677v0.914h0.694v-0.155h-0.509v-0.247z"></path>
</symbol>
<symbol id="icon-customers33" viewBox="0 0 59 32">
<path d="M21.034 28.127c0.010 0 0.019 0.003 0.027 0.006l-0.001-0c0.009 0.003 0.016 0.008 0.023 0.013l-0-0 0.126 0.119c-0.099 0.096-0.216 0.172-0.347 0.223l-0.007 0.002c-0.16 0.057-0.331 0.085-0.503 0.081-0.007 0-0.016 0-0.025 0-0.161 0-0.315-0.028-0.458-0.079l0.009 0.003c-0.138-0.049-0.256-0.122-0.357-0.214l0.001 0.001c-0.097-0.090-0.175-0.2-0.228-0.322l-0.002-0.006c-0.051-0.121-0.081-0.262-0.081-0.41 0-0.005 0-0.009 0-0.014v0.001c-0-0.005-0-0.010-0-0.016 0-0.147 0.032-0.287 0.088-0.413l-0.003 0.006c0.060-0.13 0.143-0.239 0.244-0.328l0.001-0.001c0.106-0.091 0.232-0.164 0.369-0.212l0.008-0.002c0.141-0.048 0.304-0.076 0.473-0.076 0.005 0 0.011 0 0.016 0h-0.001c0.154-0.003 0.309 0.021 0.453 0.069 0.125 0.047 0.24 0.111 0.339 0.19l-0.106 0.127c-0.008 0.009-0.016 0.017-0.026 0.023l-0 0c-0.011 0.006-0.023 0.010-0.037 0.010-0.002 0-0.004-0-0.006-0l0 0c-0.017-0.001-0.033-0.006-0.046-0.015l0 0-0.057-0.034-0.078-0.043c-0.072-0.035-0.156-0.061-0.244-0.075l-0.005-0.001c-0.052-0.008-0.111-0.013-0.172-0.013-0.006 0-0.011 0-0.017 0h0.001c-0.004-0-0.008-0-0.012-0-0.121 0-0.237 0.021-0.345 0.059l0.007-0.002c-0.106 0.037-0.197 0.091-0.275 0.16l0.001-0.001c-0.079 0.074-0.139 0.16-0.178 0.254-0.041 0.095-0.065 0.207-0.065 0.323 0 0.004 0 0.008 0 0.012v-0.001c-0 0.004-0 0.009-0 0.013 0 0.118 0.024 0.23 0.067 0.332l-0.002-0.006c0.081 0.193 0.238 0.34 0.432 0.407l0.005 0.002c0.103 0.037 0.213 0.055 0.325 0.054 0.005 0 0.011 0 0.017 0 0.062 0 0.123-0.004 0.182-0.012l-0.007 0.001c0.16-0.016 0.303-0.079 0.418-0.175l-0.001 0.001c0.016-0.013 0.037-0.021 0.060-0.021h0z"></path>
<path d="M24.678 27.531c0.002 0.143-0.027 0.286-0.085 0.419-0.056 0.129-0.137 0.238-0.237 0.325l-0.001 0.001c-0.105 0.093-0.231 0.166-0.372 0.213-0.143 0.048-0.308 0.076-0.48 0.076s-0.337-0.028-0.491-0.079l0.011 0.003c-0.143-0.050-0.266-0.123-0.372-0.215l0.001 0.001c-0.101-0.090-0.182-0.199-0.238-0.323l-0.002-0.006c-0.054-0.124-0.085-0.268-0.085-0.42s0.031-0.296 0.088-0.427l-0.003 0.007c0.054-0.122 0.135-0.234 0.24-0.33 0.106-0.090 0.232-0.16 0.371-0.206 0.309-0.103 0.651-0.103 0.959-0.001 0.139 0.048 0.266 0.121 0.371 0.214 0.199 0.178 0.324 0.435 0.324 0.721 0 0.009-0 0.017-0 0.026l0-0.001zM24.346 27.531c0.003-0.114-0.017-0.229-0.059-0.337-0.077-0.196-0.234-0.345-0.431-0.409l-0.005-0.001c-0.104-0.035-0.223-0.055-0.348-0.055s-0.245 0.020-0.357 0.058l0.008-0.002c-0.104 0.036-0.193 0.091-0.267 0.16l0-0c-0.073 0.068-0.131 0.152-0.169 0.247l-0.002 0.005c-0.080 0.22-0.080 0.455 0 0.674 0.035 0.093 0.094 0.179 0.17 0.251 0.074 0.070 0.166 0.123 0.267 0.158 0.225 0.072 0.472 0.072 0.697 0 0.101-0.035 0.193-0.089 0.266-0.158 0.076-0.073 0.133-0.159 0.169-0.251 0.042-0.109 0.063-0.223 0.059-0.337z"></path>
<path d="M27.163 27.885l0.033 0.074c0.013-0.026 0.024-0.051 0.037-0.075 0.011-0.026 0.026-0.051 0.041-0.074l0.806-1.253c0.016-0.022 0.030-0.035 0.046-0.039 0.017-0.005 0.036-0.007 0.056-0.007 0.004 0 0.007 0 0.011 0l-0-0h0.238v2.036h-0.282v-1.497l-0.001-0.063c-0.001-0.012-0.001-0.025-0.001-0.039 0-0.011 0-0.021 0.001-0.032l-0 0.001-0.811 1.269c-0.011 0.020-0.027 0.035-0.047 0.045l-0.001 0c-0.020 0.011-0.043 0.017-0.068 0.017-0 0-0.001 0-0.001 0h-0.046c-0.001 0-0.001 0-0.002 0-0.025 0-0.048-0.006-0.069-0.018l0.001 0c-0.020-0.011-0.036-0.026-0.047-0.045l-0-0.001-0.834-1.278v1.635h-0.273v-2.032h0.238c0.003-0 0.007-0 0.010-0 0.020 0 0.039 0.003 0.057 0.007l-0.002-0c0.019 0.008 0.035 0.021 0.044 0.038l0 0 0.823 1.253c0.017 0.024 0.030 0.049 0.041 0.074z"></path>
<path d="M30.197 27.784v0.762h-0.315v-2.033h0.703c0.133-0.002 0.266 0.013 0.393 0.045 0.103 0.025 0.197 0.067 0.278 0.126 0.067 0.052 0.121 0.12 0.156 0.197l0.001 0.003c0.037 0.083 0.055 0.171 0.054 0.259 0 0.003 0 0.006 0 0.009 0 0.185-0.089 0.35-0.227 0.453l-0.001 0.001c-0.079 0.060-0.173 0.107-0.274 0.135l-0.006 0.001c-0.122 0.033-0.251 0.049-0.379 0.046l-0.382-0.005zM30.197 27.566h0.382c0.083 0.001 0.166-0.010 0.244-0.031 0.068-0.019 0.127-0.049 0.178-0.088l-0.001 0.001c0.089-0.071 0.145-0.179 0.145-0.301 0-0.002 0-0.003-0-0.005v0c0-0.006 0.001-0.013 0.001-0.021 0-0.053-0.012-0.103-0.034-0.147l0.001 0.002c-0.027-0.055-0.064-0.102-0.11-0.138l-0.001-0.001c-0.106-0.070-0.235-0.111-0.374-0.111-0.017 0-0.035 0.001-0.052 0.002l0.002-0h-0.382v0.838z"></path>
<path d="M34.437 28.549h-0.249c-0.002 0-0.003 0-0.005 0-0.024 0-0.046-0.007-0.064-0.019l0.001 0c-0.017-0.012-0.031-0.028-0.041-0.046l-0-0.001-0.214-0.492h-1.078l-0.222 0.491c-0.009 0.019-0.022 0.034-0.039 0.045l-0 0c-0.019 0.013-0.042 0.021-0.067 0.021-0.001 0-0.003-0-0.004-0h-0.249l0.946-2.035h0.328l0.959 2.036zM32.875 27.794h0.89l-0.376-0.829c-0.029-0.063-0.053-0.126-0.071-0.191l-0.036 0.106c-0.012 0.036-0.024 0.064-0.037 0.092l0.002-0.006-0.373 0.827z"></path>
<path d="M35.8 26.522c0.019 0.009 0.034 0.021 0.047 0.036l0 0 1.381 1.535v-1.581h0.282v2.036h-0.158c-0.002 0-0.004 0-0.006 0-0.021 0-0.041-0.004-0.060-0.012l0.001 0c-0.020-0.010-0.037-0.022-0.051-0.038l-0-0-1.378-1.534c0.001 0.011 0.001 0.023 0.001 0.035s-0 0.025-0.001 0.037l0-0.002v1.514h-0.282v-2.036h0.167c0.001-0 0.003-0 0.005-0 0.019 0 0.037 0.003 0.054 0.010l-0.001-0z"></path>
<path d="M39.834 27.739v0.809h-0.315v-0.809l-0.872-1.226h0.282c0.002-0 0.005-0 0.007-0 0.022 0 0.043 0.006 0.061 0.018l-0-0c0.017 0.013 0.031 0.029 0.042 0.046l0.545 0.791c0.037 0.052 0.070 0.112 0.094 0.175l0.002 0.005 0.041-0.087c0.015-0.032 0.034-0.063 0.054-0.093l0.538-0.797c0.012-0.017 0.025-0.031 0.040-0.043l0-0c0.017-0.013 0.039-0.021 0.063-0.021 0.002 0 0.004 0 0.006 0h0.285l-0.874 1.232z"></path>
<path d="M27.007 23.095c0.137 0.015 0.276 0.027 0.417 0.038 2.128-0.814 3.929-2.145 5.177-3.828s1.887-3.642 1.838-5.634l-2.345-2.004c0.477 2.121 0.254 4.313-0.645 6.331-0.898 2.018-2.436 3.783-4.441 5.097z"></path>
<path d="M26.17 23.002l0.063 0.011c2.143-1.31 3.777-3.138 4.69-5.25s1.065-4.408 0.433-6.594l-3.341-2.854c1.351 2.346 1.895 4.971 1.569 7.571s-1.511 5.068-3.414 7.115z"></path>
<path d="M37.5 16.024c-0.567 2.189-1.946 4.162-3.931 5.629-0.541 0.405-1.152 0.786-1.796 1.112l-0.071 0.033c1.616-0.406 3.102-1.123 4.342-2.097s2.202-2.178 2.811-3.52l-1.354-1.157z"></path>
<path d="M36.969 15.702l-1.929-1.648c-0.038 1.879-0.663 3.715-1.811 5.318s-2.779 2.914-4.721 3.797h0.010c0.456-0 0.907-0.024 1.35-0.070l-0.055 0.005c1.816-0.634 3.419-1.641 4.668-2.932s2.103-2.827 2.489-4.47z"></path>
<path d="M26.449 7.112l-2.301-1.969c-2.058 0.679-3.827 1.873-5.077 3.426s-1.922 3.392-1.929 5.277v-0.001c0.008 2.081 0.829 4.102 2.331 5.741s3.602 2.803 5.967 3.308c2.111-2.198 3.347-4.913 3.528-7.751s-0.702-5.651-2.52-8.032z"></path>
<path d="M42.286 15.399c-0.009-2.47-1.161-4.838-3.206-6.585-2.044-1.747-4.815-2.731-7.706-2.739-0.007 0-0.016-0-0.025-0-1.388 0-2.723 0.227-3.97 0.647l0.088-0.026 14.090 12.038c0.459-0.979 0.727-2.126 0.729-3.336v-0.001z"></path>
</symbol>
<symbol id="icon-customers44" viewBox="0 0 59 32">
<path d="M13.759 12.296h-0.002c-1.363 0-2.469 0.997-2.469 2.225v0.002c0 1.229 1.106 2.225 2.469 2.225h0.002c1.363 0 2.469-0.997 2.469-2.226v-0.002c0-1.229-1.105-2.225-2.469-2.225z"></path>
<path d="M31.978 11.585c-0.003-1.707-0.757-3.343-2.095-4.551s-3.154-1.887-5.048-1.891c-1.893 0.003-3.709 0.683-5.048 1.89s-2.094 2.844-2.097 4.551v9.414s14.287-1.434 14.289-9.413v-0.001z"></path>
<path d="M6.286 24.088c0.003 1.189 0.528 2.326 1.459 3.166s2.194 1.314 3.511 1.317c1.317-0.003 2.579-0.477 3.51-1.317s1.456-1.977 1.46-3.166v-6.549s-9.941 0.998-9.941 6.548zM11.257 25.262c-0.258 0-0.51-0.069-0.724-0.198-0.209-0.125-0.373-0.305-0.476-0.52l-0.003-0.007c-0.063-0.132-0.099-0.286-0.099-0.449 0-0.081 0.009-0.16 0.026-0.236l-0.001 0.007c0.056-0.241 0.182-0.446 0.355-0.6l0.001-0.001c0.181-0.161 0.408-0.275 0.659-0.32l0.008-0.001c0.253-0.046 0.514-0.022 0.752 0.067s0.442 0.239 0.585 0.432 0.219 0.42 0.219 0.652c0.001 0.154-0.033 0.308-0.097 0.451-0.066 0.143-0.162 0.273-0.282 0.382-0.119 0.107-0.26 0.194-0.414 0.252l-0.009 0.003c-0.147 0.056-0.318 0.089-0.496 0.089-0.001 0-0.002 0-0.003 0h0v-0.005z"></path>
<path d="M20.348 23.151v2.438h-0.503v-2.437h0.502zM21.318 24.193v0.392h-1.109v-0.392h1.109zM21.435 23.151v0.393h-1.224v-0.393h1.225zM23.729 24.313v0.115c0 0.186-0.025 0.352-0.075 0.499-0.048 0.146-0.121 0.271-0.214 0.379l0.001-0.001c-0.091 0.103-0.201 0.181-0.328 0.236-0.12 0.052-0.259 0.082-0.406 0.082-0.006 0-0.011-0-0.016-0h0.001c-0.153 0-0.293-0.028-0.42-0.082-0.129-0.057-0.238-0.136-0.327-0.235l-0.001-0.001c-0.093-0.106-0.167-0.232-0.214-0.369l-0.002-0.008c-0.048-0.142-0.076-0.306-0.076-0.477 0-0.008 0-0.016 0-0.023v0.001-0.115c0-0.186 0.025-0.353 0.075-0.499 0.048-0.146 0.121-0.271 0.214-0.379l-0.001 0.001c0.093-0.103 0.202-0.183 0.328-0.237 0.127-0.055 0.267-0.082 0.421-0.082 0.154 0 0.294 0.027 0.42 0.082s0.237 0.134 0.328 0.238c0.093 0.104 0.164 0.229 0.214 0.377 0.051 0.146 0.077 0.312 0.077 0.498zM23.222 24.429v-0.119c0-0.129-0.012-0.243-0.035-0.341-0.021-0.094-0.057-0.177-0.106-0.251l0.002 0.003c-0.042-0.063-0.099-0.114-0.165-0.149l-0.002-0.001c-0.063-0.032-0.137-0.052-0.216-0.052-0.004 0-0.007 0-0.011 0h0.001c-0.085 0-0.16 0.017-0.226 0.051-0.068 0.037-0.124 0.087-0.165 0.149l-0.001 0.002c-0.046 0.071-0.082 0.154-0.101 0.244l-0.001 0.005c-0.022 0.096-0.035 0.206-0.035 0.32 0 0.008 0 0.015 0 0.022v-0.001 0.119c0 0.129 0.011 0.242 0.035 0.342 0.023 0.098 0.058 0.181 0.104 0.25 0.043 0.064 0.099 0.115 0.165 0.151l0.002 0.001c0.066 0.035 0.141 0.053 0.226 0.053s0.16-0.017 0.226-0.051c0.068-0.037 0.123-0.089 0.164-0.151l0.001-0.002c0.044-0.069 0.078-0.151 0.102-0.25 0.022-0.097 0.035-0.207 0.035-0.321 0-0.007-0-0.014-0-0.022v0.001zM25.359 24.951c0-0.002 0-0.003 0-0.005 0-0.040-0.007-0.079-0.021-0.114l0.001 0.002c-0.015-0.039-0.039-0.072-0.070-0.097l-0-0c-0.042-0.035-0.090-0.065-0.142-0.088l-0.004-0.002c-0.063-0.029-0.143-0.059-0.242-0.090-0.129-0.041-0.233-0.082-0.334-0.128l0.019 0.008c-0.1-0.045-0.185-0.097-0.264-0.158l0.003 0.002c-0.072-0.057-0.131-0.127-0.175-0.206l-0.002-0.004c-0.040-0.077-0.064-0.168-0.064-0.264 0-0.004 0-0.008 0-0.012v0.001c-0-0.002-0-0.005-0-0.008 0-0.098 0.025-0.191 0.068-0.271l-0.002 0.003c0.045-0.084 0.107-0.155 0.187-0.214 0.080-0.061 0.175-0.107 0.285-0.139 0.111-0.031 0.231-0.048 0.363-0.048 0.179 0 0.337 0.033 0.47 0.097s0.238 0.154 0.311 0.266c0.074 0.113 0.112 0.242 0.112 0.387h-0.499c0-0.003 0-0.006 0-0.010 0-0.066-0.017-0.127-0.046-0.181l0.001 0.002c-0.031-0.056-0.076-0.1-0.132-0.128l-0.002-0.001c-0.060-0.030-0.132-0.047-0.207-0.047-0.006 0-0.012 0-0.019 0l0.001-0c-0.005-0-0.011-0-0.017-0-0.072 0-0.141 0.015-0.204 0.042l0.003-0.001c-0.054 0.022-0.099 0.059-0.131 0.105l-0.001 0.001c-0.027 0.040-0.043 0.090-0.043 0.143 0 0.002 0 0.003 0 0.005v-0c0 0.041 0.010 0.079 0.030 0.112 0.025 0.037 0.057 0.069 0.093 0.093l0.001 0.001c0.040 0.029 0.091 0.057 0.151 0.082s0.13 0.051 0.209 0.075c0.134 0.040 0.25 0.086 0.351 0.135s0.186 0.106 0.254 0.169c0.067 0.063 0.119 0.133 0.153 0.213s0.052 0.169 0.052 0.27c0 0.105-0.021 0.2-0.063 0.284-0.041 0.083-0.101 0.154-0.179 0.213-0.078 0.057-0.171 0.101-0.279 0.131s-0.229 0.046-0.363 0.046c-0.127-0-0.25-0.017-0.366-0.050l0.010 0.002c-0.122-0.033-0.228-0.083-0.324-0.148l0.004 0.002c-0.094-0.064-0.17-0.147-0.226-0.244l-0.002-0.004c-0.057-0.101-0.086-0.22-0.086-0.357h0.505c0 0.075 0.011 0.14 0.035 0.193s0.057 0.095 0.099 0.127c0.044 0.032 0.095 0.056 0.151 0.070l0.003 0.001c0.060 0.015 0.126 0.022 0.197 0.022 0.006 0 0.012 0 0.019 0 0.070 0 0.138-0.014 0.199-0.038l-0.004 0.001c0.099-0.040 0.167-0.135 0.167-0.246 0-0.001 0-0.002-0-0.003v0zM27.293 23.151v2.438h-0.501v-2.437h0.501zM28.043 23.151v0.394h-1.989v-0.394h1.989zM29.965 25.197v0.392h-1.297v-0.391h1.297zM28.831 23.151v2.438h-0.503v-2.437h0.503zM29.795 24.144v0.382h-1.127v-0.382h1.128zM29.963 23.151v0.393h-1.294v-0.393h1.295zM30.258 23.151h0.909c0.187 0 0.347 0.028 0.481 0.083 0.135 0.057 0.239 0.139 0.311 0.249s0.109 0.244 0.109 0.403c0 0.131-0.023 0.243-0.067 0.337s-0.107 0.171-0.184 0.232l-0.001 0.001c-0.080 0.061-0.173 0.111-0.273 0.145l-0.007 0.002-0.158 0.083h-0.79l-0.003-0.391h0.589c0.005 0 0.010 0 0.016 0 0.074 0 0.144-0.017 0.206-0.048l-0.003 0.001c0.056-0.030 0.101-0.075 0.13-0.129l0.001-0.002c0.029-0.054 0.045-0.118 0.045-0.185 0-0.003-0-0.006-0-0.010v0c0-0.004 0-0.008 0-0.012 0-0.069-0.016-0.135-0.044-0.193l0.001 0.003c-0.030-0.057-0.075-0.101-0.131-0.129l-0.002-0.001c-0.061-0.029-0.132-0.046-0.207-0.046-0.006 0-0.011 0-0.017 0l0.001-0h-0.406v2.045h-0.503v-2.437zM31.62 25.589l-0.555-1.086 0.53-0.004 0.563 1.067v0.023h-0.537zM34.257 24.721h-0.621v-0.391h0.621c0.006 0 0.013 0 0.020 0 0.078 0 0.151-0.017 0.217-0.049l-0.003 0.001c0.057-0.030 0.103-0.076 0.131-0.133l0.001-0.002c0.026-0.058 0.041-0.126 0.041-0.197s-0.015-0.139-0.043-0.201l0.001 0.003c-0.029-0.063-0.074-0.114-0.131-0.149l-0.001-0.001c-0.062-0.036-0.137-0.058-0.216-0.058-0.006 0-0.013 0-0.019 0l0.001-0h-0.447v2.045h-0.503v-2.437h0.95c0.191 0 0.354 0.034 0.49 0.104 0.137 0.068 0.242 0.162 0.314 0.283 0.073 0.12 0.109 0.258 0.109 0.413 0.001 0.158-0.035 0.294-0.109 0.409-0.072 0.115-0.177 0.204-0.314 0.266-0.136 0.063-0.299 0.094-0.49 0.094zM37.153 25.198v0.392h-1.297v-0.391h1.297zM36.020 23.152v2.438h-0.503v-2.437h0.503zM36.984 24.145v0.382h-1.127v-0.382h1.128zM37.151 23.152v0.393h-1.294v-0.393h1.295zM38.569 23.152v2.438h-0.5v-2.437h0.5zM39.319 23.152v0.393h-1.989v-0.393h1.989zM41.242 25.198v0.392h-1.297v-0.391h1.297zM40.109 23.152v2.438h-0.502v-2.437h0.502zM41.073 24.145v0.382h-1.128v-0.382h1.128zM41.241 23.152v0.393h-1.295v-0.393h1.295zM41.536 23.152h0.909c0.187 0 0.347 0.028 0.481 0.083 0.134 0.057 0.238 0.139 0.311 0.249s0.109 0.244 0.109 0.403c0 0.131-0.023 0.243-0.067 0.337s-0.107 0.171-0.184 0.232l-0.001 0.001c-0.080 0.061-0.173 0.111-0.273 0.145l-0.007 0.002-0.159 0.083h-0.791l-0.003-0.391h0.588c0.005 0 0.011 0 0.017 0 0.074 0 0.144-0.017 0.206-0.048l-0.003 0.001c0.056-0.030 0.101-0.075 0.129-0.129l0.001-0.002c0.029-0.054 0.046-0.118 0.046-0.186 0-0.003-0-0.006-0-0.008v0c0-0.003 0-0.007 0-0.010 0-0.070-0.016-0.136-0.045-0.195l0.001 0.003c-0.030-0.057-0.075-0.101-0.131-0.129l-0.002-0.001c-0.061-0.029-0.132-0.046-0.207-0.046-0.006 0-0.011 0-0.017 0l0.001-0h-0.407v2.045h-0.503v-2.437zM42.899 25.59l-0.556-1.086 0.53-0.004 0.562 1.067v0.023h-0.537zM45.002 24.952c0-0.001 0-0.002 0-0.004 0-0.041-0.008-0.080-0.021-0.116l0.001 0.002c-0.015-0.039-0.039-0.072-0.070-0.097l-0-0c-0.042-0.035-0.090-0.065-0.142-0.088l-0.004-0.002c-0.063-0.029-0.143-0.059-0.242-0.090-0.129-0.041-0.233-0.082-0.334-0.128l0.019 0.008c-0.1-0.045-0.185-0.097-0.264-0.158l0.003 0.002c-0.072-0.057-0.131-0.127-0.175-0.206l-0.002-0.004c-0.040-0.077-0.064-0.168-0.064-0.264 0-0.004 0-0.008 0-0.012v0.001c-0-0.002-0-0.005-0-0.008 0-0.098 0.025-0.191 0.068-0.271l-0.002 0.003c0.046-0.084 0.108-0.155 0.189-0.214 0.081-0.060 0.176-0.108 0.278-0.138l0.006-0.002c0.111-0.031 0.231-0.048 0.363-0.048 0.179 0 0.337 0.033 0.47 0.097s0.238 0.154 0.311 0.266c0.075 0.113 0.113 0.242 0.113 0.387h-0.499c0-0.003 0-0.006 0-0.010 0-0.066-0.017-0.127-0.046-0.181l0.001 0.002c-0.031-0.056-0.077-0.1-0.132-0.128l-0.002-0.001c-0.060-0.030-0.132-0.047-0.207-0.047-0.006 0-0.012 0-0.018 0l0.001-0c-0.005-0-0.011-0-0.017-0-0.072 0-0.141 0.015-0.204 0.042l0.003-0.001c-0.054 0.022-0.099 0.059-0.131 0.105l-0.001 0.001c-0.027 0.040-0.043 0.090-0.043 0.143 0 0.002 0 0.003 0 0.005v-0c0 0.041 0.010 0.079 0.030 0.112 0.025 0.037 0.057 0.069 0.093 0.093l0.001 0.001c0.041 0.029 0.091 0.057 0.152 0.082s0.13 0.051 0.209 0.075c0.133 0.040 0.25 0.086 0.35 0.135s0.186 0.106 0.254 0.169c0.069 0.063 0.12 0.133 0.154 0.213s0.051 0.169 0.051 0.27c0 0.007 0 0.015 0 0.023 0 0.194-0.094 0.366-0.24 0.473l-0.002 0.001c-0.078 0.057-0.171 0.101-0.279 0.131s-0.23 0.046-0.363 0.046c-0.127-0-0.25-0.017-0.366-0.050l0.010 0.002c-0.122-0.033-0.228-0.083-0.324-0.148l0.004 0.002c-0.094-0.064-0.17-0.147-0.226-0.244l-0.002-0.004c-0.057-0.101-0.086-0.22-0.086-0.357h0.504c0 0.075 0.011 0.14 0.035 0.193s0.057 0.095 0.099 0.127c0.044 0.032 0.095 0.056 0.151 0.070l0.003 0.001c0.060 0.015 0.126 0.022 0.198 0.022 0.006 0 0.012 0 0.019 0 0.070 0 0.138-0.014 0.199-0.038l-0.004 0.001c0.099-0.040 0.167-0.135 0.167-0.246 0-0.001 0-0.002-0-0.003v0z"></path>
</symbol>
<symbol id="icon-customers55" viewBox="0 0 59 32">
<path d="M15.31 25.356c0.14 0.156 0.215 0.352 0.211 0.553 0.007 0.131-0.019 0.262-0.075 0.383s-0.143 0.229-0.252 0.316c-0.239 0.162-0.534 0.258-0.851 0.258-0.035 0-0.070-0.001-0.105-0.004l0.005 0h-1.671v-3.505h1.637c0.029-0.002 0.062-0.003 0.096-0.003 0.301 0 0.581 0.088 0.817 0.239l-0.006-0.004c0.106 0.080 0.19 0.181 0.245 0.294s0.080 0.237 0.073 0.361c0.010 0.193-0.057 0.383-0.19 0.535-0.129 0.138-0.3 0.236-0.492 0.273l-0.006 0.001c0.222 0.035 0.422 0.142 0.565 0.299zM13.35 24.827h0.699c0.159 0.011 0.317-0.030 0.445-0.116 0.051-0.041 0.092-0.093 0.119-0.153l0.001-0.003c0.020-0.045 0.032-0.097 0.032-0.152 0-0.012-0.001-0.024-0.002-0.036l0 0.002c0.001-0.009 0.001-0.019 0.001-0.030 0-0.057-0.012-0.11-0.034-0.159l0.001 0.003c-0.027-0.062-0.067-0.115-0.116-0.157l-0.001-0c-0.113-0.075-0.252-0.12-0.401-0.12-0.020 0-0.040 0.001-0.060 0.002l0.003-0h-0.689v0.918zM14.562 26.171c0.055-0.043 0.098-0.096 0.128-0.159l0.001-0.003c0.024-0.049 0.037-0.107 0.037-0.168 0-0.010-0-0.019-0.001-0.028l0 0.001c0.001-0.007 0.001-0.016 0.001-0.025 0-0.063-0.014-0.122-0.040-0.175l0.001 0.002c-0.032-0.065-0.076-0.119-0.13-0.161l-0.001-0.001c-0.121-0.080-0.269-0.128-0.429-0.128-0.016 0-0.032 0-0.048 0.001l0.002-0h-0.735v0.964h0.744c0.167 0.009 0.333-0.034 0.47-0.122z"></path>
<path d="M18.657 26.863l-0.911-1.37h-0.343v1.369h-0.783v-3.505h1.483c0.032-0.002 0.069-0.004 0.107-0.004 0.348 0 0.67 0.113 0.93 0.304l-0.004-0.003c0.207 0.19 0.333 0.441 0.353 0.707 0.002 0.022 0.003 0.047 0.003 0.073 0 0.256-0.093 0.491-0.246 0.672l0.001-0.002c-0.183 0.189-0.433 0.315-0.707 0.357l0.97 1.4h-0.852zM17.403 25.015h0.641c0.445 0 0.667-0.177 0.667-0.531 0.001-0.009 0.001-0.019 0.001-0.030 0-0.066-0.013-0.128-0.038-0.185l0.001 0.003c-0.030-0.071-0.074-0.132-0.128-0.181l-0-0c-0.122-0.091-0.276-0.145-0.443-0.145-0.022 0-0.043 0.001-0.065 0.003l0.003-0h-0.649l0.008 1.067z"></path>
<path d="M22.939 26.157h-1.562l-0.275 0.705h-0.822l1.434-3.465h0.888l1.428 3.465h-0.822l-0.27-0.706zM22.73 25.626l-0.571-1.479-0.57 1.479h1.141z"></path>
<path d="M28.299 26.863h-0.777l-1.744-2.383v2.383h-0.775v-3.505h0.776l1.744 2.397v-2.396h0.778v3.504z"></path>
<path d="M32.737 26.024c-0.169 0.27-0.409 0.482-0.693 0.613l-0.010 0.004c-0.339 0.154-0.714 0.23-1.094 0.221h-1.385v-3.505h1.385c0.019-0 0.041-0.001 0.063-0.001 0.373 0 0.727 0.080 1.046 0.223l-0.016-0.006c0.297 0.135 0.543 0.348 0.703 0.611 0.16 0.285 0.243 0.599 0.243 0.919-0.001 0.338-0.091 0.655-0.248 0.929l0.005-0.009zM31.847 25.94c0.211-0.216 0.341-0.511 0.344-0.836v-0c-0.003-0.325-0.134-0.62-0.344-0.836l0 0c-0.242-0.187-0.549-0.301-0.884-0.301-0.032 0-0.063 0.001-0.094 0.003l0.004-0h-0.541v2.268h0.54c0.027 0.002 0.058 0.003 0.090 0.003 0.334 0 0.642-0.113 0.887-0.303l-0.003 0.002z"></path>
<path d="M23.425 3.867s10.038 3.411 9.826 8.349v8.351c-0.001 0-10.031-3.413-9.822-8.35l-0.003-8.349z"></path>
<path d="M42.194 18.611c1.895-1.175 4.088-1.903 6.377-2.116v-2.614c-2.638 0.915-4.875 2.575-6.378 4.73z"></path>
<path d="M41.055 19.399c1.551-2.813 4.242-4.983 7.517-6.065v-7.533s-14.296 4.86-13.994 11.891v11.89c0.001 0 0.638-0.217 1.64-0.625 0-0.38 0-0.763 0.046-1.149 0.296-3.264 2.019-6.289 4.792-8.409z"></path>
<path d="M39.695 23.815c0.084-0.899 0.261-1.726 0.523-2.513l-0.023 0.079c-1.726 1.831-2.771 4.103-2.989 6.497-0.021 0.226-0.032 0.451-0.038 0.685 1.198-0.515 2.101-0.952 2.986-1.418l-0.237 0.114c-0.171-0.73-0.269-1.568-0.269-2.43 0-0.356 0.017-0.709 0.050-1.057l-0.003 0.044z"></path>
<path d="M40.263 23.858c-0.028 0.289-0.044 0.624-0.044 0.963 0 0.763 0.080 1.506 0.233 2.224l-0.012-0.070c3.906-2.104 8.295-5.354 8.126-9.283v-0.342c-2.79 0.281-5.401 1.379-7.431 3.126-0.448 0.989-0.757 2.136-0.868 3.341l-0.003 0.042z"></path>
</symbol>
<symbol id="icon-customers66" viewBox="0 0 59 32">
<path d="M30.589 15.682c-0.219-0.282-0.35-0.64-0.35-1.029 0-0.038 0.001-0.076 0.004-0.114l-0 0.005v-1.65c0-0.506 0.115-0.89 0.345-1.153s0.624-0.394 1.183-0.393c0.526 0 0.898 0.112 1.119 0.336 0.24 0.286 0.357 0.634 0.33 0.987v0.387h-0.939v-0.392c0.003-0.129-0.006-0.257-0.027-0.385-0.016-0.093-0.065-0.172-0.133-0.227l-0.001-0.001c-0.084-0.056-0.188-0.090-0.299-0.090-0.015 0-0.029 0.001-0.044 0.002l0.002-0c-0.012-0.001-0.027-0.001-0.041-0.001-0.118 0-0.228 0.036-0.319 0.097l0.002-0.001c-0.077 0.062-0.133 0.149-0.155 0.248l-0.001 0.003c-0.023 0.112-0.037 0.241-0.037 0.373 0 0.012 0 0.025 0 0.037l-0-0.002v2.003c-0.002 0.023-0.003 0.049-0.003 0.075 0 0.178 0.046 0.346 0.126 0.492l-0.003-0.005c0.049 0.060 0.112 0.107 0.184 0.136l0.003 0.001c0.076 0.029 0.16 0.040 0.243 0.031 0.12 0.009 0.24-0.024 0.333-0.091 0.073-0.061 0.123-0.145 0.14-0.242l0-0.002c0.022-0.133 0.032-0.267 0.029-0.401v-0.406h0.941v0.371c0.002 0.029 0.003 0.062 0.003 0.096 0 0.357-0.124 0.685-0.331 0.944l0.002-0.003c-0.215 0.245-0.583 0.367-1.124 0.367s-0.949-0.131-1.181-0.403z"></path>
<path d="M34.501 15.699c-0.237-0.257-0.356-0.631-0.356-1.127v-1.735c0-0.49 0.119-0.861 0.356-1.113s0.634-0.377 1.191-0.376c0.553 0 0.947 0.126 1.185 0.376 0.238 0.252 0.358 0.623 0.358 1.113v1.736c0 0.491-0.121 0.867-0.362 1.126s-0.634 0.387-1.181 0.387-0.951-0.131-1.191-0.386zM36.129 15.282c0.085-0.16 0.123-0.337 0.113-0.513v-2.126c0.001-0.017 0.002-0.036 0.002-0.056 0-0.164-0.042-0.318-0.115-0.452l0.002 0.005c-0.050-0.062-0.115-0.11-0.189-0.138l-0.003-0.001c-0.055-0.021-0.118-0.034-0.184-0.034-0.023 0-0.045 0.001-0.067 0.004l0.003-0c-0.019-0.002-0.041-0.004-0.064-0.004-0.066 0-0.13 0.012-0.188 0.035l0.004-0.001c-0.078 0.029-0.143 0.077-0.193 0.137l-0.001 0.001c-0.086 0.157-0.124 0.33-0.113 0.504v2.135c-0.011 0.177 0.027 0.353 0.113 0.514 0.055 0.054 0.122 0.097 0.198 0.127 0.072 0.029 0.155 0.046 0.241 0.046s0.17-0.017 0.246-0.047l-0.004 0.002c0.075-0.030 0.143-0.074 0.198-0.127v-0.010z"></path>
<path d="M38.365 11.398h1.011l0.761 3.203 0.778-3.202h0.985l0.099 4.623h-0.728l-0.078-3.213-0.751 3.213h-0.583l-0.778-3.225-0.071 3.225h-0.735l0.091-4.623z"></path>
<path d="M43.133 11.398h1.576c0.909 0 1.362 0.438 1.362 1.313 0 0.838-0.478 1.257-1.434 1.256h-0.537v2.055h-0.972l0.006-4.623zM44.479 13.374c0.095 0.010 0.193 0.003 0.286-0.023 0.092-0.025 0.177-0.067 0.249-0.123 0.090-0.122 0.144-0.276 0.144-0.442 0-0.028-0.002-0.056-0.005-0.083l0 0.003c0.001-0.016 0.001-0.035 0.001-0.053 0-0.13-0.017-0.257-0.050-0.377l0.002 0.010c-0.016-0.049-0.041-0.092-0.073-0.127l0 0c-0.034-0.038-0.075-0.069-0.121-0.092l-0.002-0.001c-0.113-0.048-0.245-0.076-0.383-0.076-0.018 0-0.036 0-0.054 0.001l0.002-0h-0.377v1.382h0.377z"></path>
<path d="M47.474 11.398h1.044l1.072 4.623h-0.907l-0.211-1.066h-0.932l-0.218 1.067h-0.92l1.072-4.623zM48.366 14.419l-0.364-1.941-0.364 1.941h0.728z"></path>
<path d="M50.456 11.398h0.681l1.303 2.637v-2.637h0.808v4.623h-0.648l-1.311-2.753v2.753h-0.834l0.002-4.623z"></path>
<path d="M55.139 14.258l-1.083-2.854h0.913l0.661 1.833 0.621-1.833h0.893l-1.070 2.854v1.762h-0.934v-1.762z"></path>
<path d="M32.090 18.042v0.242h-0.794v1.878h-0.332v-1.878h-0.798v-0.242h1.925z"></path>
<path d="M34.578 20.162h-0.257c-0.002 0-0.004 0-0.007 0-0.024 0-0.047-0.008-0.065-0.020l0 0c-0.019-0.012-0.034-0.029-0.043-0.048l-0-0.001-0.23-0.503h-1.101l-0.23 0.503c-0.007 0.022-0.019 0.042-0.034 0.057v0c-0.019 0.013-0.042 0.021-0.067 0.021-0.002 0-0.004-0-0.005-0h-0.257l0.973-2.121h0.339l0.984 2.111zM32.967 19.375h0.918l-0.389-0.863c-0.025-0.054-0.050-0.121-0.070-0.189l-0.003-0.011-0.037 0.113-0.036 0.089-0.385 0.861z"></path>
<path d="M36.255 19.954c0.061 0.003 0.122 0.003 0.183 0 0.053-0.005 0.105-0.013 0.156-0.025 0.056-0.012 0.103-0.025 0.148-0.041l-0.008 0.003c0.043-0.015 0.086-0.033 0.13-0.051v-0.477h-0.389c-0.001 0-0.003 0-0.005 0-0.008 0-0.017-0.001-0.024-0.004l0.001 0c-0.009-0.003-0.017-0.008-0.024-0.013l0 0c-0.006-0.005-0.011-0.010-0.015-0.017l-0-0c-0.003-0.006-0.005-0.012-0.005-0.019 0-0.001 0-0.002 0-0.002v0-0.163h0.754v0.813c-0.118 0.074-0.254 0.133-0.4 0.171l-0.010 0.002c-0.080 0.020-0.162 0.034-0.244 0.043-0.094 0.009-0.189 0.014-0.284 0.014-0.003 0-0.007 0-0.011 0-0.172 0-0.336-0.029-0.489-0.083l0.010 0.003c-0.15-0.052-0.279-0.127-0.39-0.223l0.002 0.001c-0.104-0.092-0.189-0.204-0.249-0.33l-0.003-0.006c-0.057-0.126-0.090-0.272-0.090-0.427 0-0.005 0-0.009 0-0.014v0.001c-0-0.004-0-0.008-0-0.012 0-0.156 0.032-0.304 0.091-0.438l-0.003 0.007c0.056-0.126 0.142-0.24 0.251-0.336 0.11-0.094 0.239-0.169 0.38-0.218l0.008-0.003c0.167-0.054 0.344-0.081 0.522-0.079 0.091 0 0.181 0.006 0.27 0.018 0.079 0.011 0.157 0.029 0.231 0.054 0.069 0.022 0.134 0.050 0.194 0.084 0.060 0.033 0.117 0.070 0.17 0.11l-0.093 0.131c-0.008 0.012-0.019 0.022-0.032 0.028l-0 0c-0.013 0.007-0.028 0.011-0.044 0.011h-0c-0.022-0.001-0.043-0.007-0.061-0.017l0.001 0c-0.039-0.018-0.071-0.035-0.101-0.053l0.006 0.003c-0.037-0.020-0.080-0.040-0.124-0.055l-0.006-0.002c-0.050-0.018-0.11-0.034-0.171-0.046l-0.008-0.001c-0.070-0.012-0.151-0.018-0.234-0.018-0.005 0-0.009 0-0.014 0h0.001c-0.003-0-0.006-0-0.010-0-0.131 0-0.256 0.022-0.374 0.062l0.008-0.002c-0.111 0.038-0.206 0.095-0.286 0.168l0.001-0.001c-0.081 0.077-0.143 0.166-0.181 0.264-0.041 0.105-0.065 0.226-0.065 0.353s0.024 0.248 0.067 0.36l-0.002-0.007c0.042 0.099 0.109 0.19 0.194 0.267 0.080 0.073 0.177 0.13 0.284 0.168 0.124 0.037 0.255 0.051 0.385 0.042z"></path>
<path d="M39.357 19.921h1.063v0.242h-1.387v-2.12h0.333l-0.008 1.878z"></path>
<path d="M41.524 20.162h-0.333v-2.12h0.333v2.12z"></path>
<path d="M42.761 18.052c0.020 0.010 0.037 0.023 0.051 0.039l0 0 1.422 1.598c-0.001-0.011-0.001-0.024-0.001-0.038s0.001-0.026 0.002-0.039l-0 0.002v-1.58h0.29v2.129h-0.167c-0.003 0-0.007 0-0.011 0-0.022 0-0.043-0.005-0.062-0.013l0.001 0c-0.020-0.011-0.038-0.024-0.052-0.040l-0-0-1.42-1.597 0.001 0.072 0.001 0.065v1.511h-0.278v-2.121h0.173c0.019 0 0.037 0.003 0.054 0.010z"></path>
<path d="M46.974 18.042v0.233h-1.179v0.7h0.955v0.225h-0.955v0.724h1.179v0.233h-1.523v-2.115h1.522z"></path>
<path d="M12.111 4.948l14.773 3.619v12.683l-14.773-3.617v-12.686zM11.164 3.866v14.382l16.666 4.085v-14.38l-16.666-4.086z"></path>
<path d="M20.096 29.010l-16.667-4.088v-14.381l16.667 4.086v14.383z"></path>
<path d="M11.44 4.785l14.58 3.574-6.2 5.352-14.582-3.575 6.202-5.351zM11.164 3.867l-7.735 6.674 16.667 4.086 7.734-6.674-16.666-4.086z"></path>
<path d="M21.034 28.2l6.795-5.865-6.796-1.667v7.531z"></path>
</symbol>
</defs>
</svg>


